<?xml version="1.0" encoding="UTF-8" standalone="no"?>
<!-- Created with Inkscape (http://www.inkscape.org/) -->

<svg
   width="8.8000002cm"
   height="5.5cm"
   viewBox="0 0 88.000002 54.999999"
   version="1.1"
   id="svg5"
   sodipodi:docname="carte_visite.svg"
   inkscape:version="1.2.2 (732a01da63, 2022-12-09)"
   xml:space="preserve"
   xmlns:inkscape="http://www.inkscape.org/namespaces/inkscape"
   xmlns:sodipodi="http://sodipodi.sourceforge.net/DTD/sodipodi-0.dtd"
   xmlns="http://www.w3.org/2000/svg"
   xmlns:svg="http://www.w3.org/2000/svg"
   xmlns:ns1="http://www.iki.fi/pav/software/textext/"><sodipodi:namedview
     id="namedview7"
     pagecolor="#ffffff"
     bordercolor="#666666"
     borderopacity="1.0"
     inkscape:pageshadow="2"
     inkscape:pageopacity="0.0"
     inkscape:pagecheckerboard="0"
     inkscape:document-units="mm"
     showgrid="false"
     inkscape:zoom="2.1467952"
     inkscape:cx="211.71093"
     inkscape:cy="73.365172"
     inkscape:window-width="1920"
     inkscape:window-height="991"
     inkscape:window-x="-9"
     inkscape:window-y="-9"
     inkscape:window-maximized="1"
     inkscape:current-layer="g841"
     units="cm"
     inkscape:showpageshadow="2"
     inkscape:deskcolor="#d1d1d1" /><defs
     id="defs2"><clipPath
       clipPathUnits="userSpaceOnUse"
       id="clipPath9513"><ellipse
         style="opacity:1;fill:none;fill-opacity:1;stroke:#000000;stroke-width:0.0339727;stroke-linecap:round;stroke-miterlimit:4;stroke-dasharray:none;stroke-opacity:1"
         id="ellipse9515"
         cx="-4.2179303"
         cy="-2.1016829"
         rx="1.2726818"
         ry="0.85952252" /></clipPath></defs><g
     inkscape:label="Calque 1"
     inkscape:groupmode="layer"
     id="layer1"><g
       transform="matrix(13.5251,0.881899,-1.30234,19.973,76.707,65.9461)"
       ns1:version="1.6.1"
       ns1:texconverter="pdflatex"
       ns1:pdfconverter="inkscape"
       ns1:text="$\\varphi$"
       ns1:preamble="/home/mickael/.config/inkscape/extensions/textext/default_packages.tex"
       ns1:scale="1.8876526420270863"
       ns1:alignment="middle center"
       ns1:stroke-to-path="0"
       ns1:jacobian_sqrt="0.665922"
       id="g841"><defs
         id="id-f8c9bec8-945d-432d-9e3f-24b81968d57a"><g
           id="id-0a6031dc-6fc3-465b-8a06-dee216b06aa9"><symbol
             overflow="visible"
             id="id-68b09dfc-be8d-49a0-9dd0-fef609a1760c"><path
               style="stroke:none;stroke-width:0"
               d=""
               id="id-c0236819-9d68-487d-8a65-a440f73cb368" /></symbol><symbol
             overflow="visible"
             id="id-ef34292a-97b4-41ca-af24-bdfbfe7524e2"><path
               style="stroke:none;stroke-width:0"
               d="M 1.6875,1.6875 C 1.65625,1.828125 1.640625,1.84375 1.640625,1.890625 c 0,0.21875 0.1875,0.28125 0.296875,0.28125 0.046875,0 0.265625,-0.03125 0.359375,-0.265625 C 2.328125,1.828125 2.375,1.5 2.65625,0.09375 c 0.078125,0 0.15625,0.015625 0.328125,0.015625 1.65625,0 3.1875,-1.5625 3.1875,-3.140625 0,-0.78125 -0.390625,-1.375 -1.140625,-1.375 -1.4375,0 -2.046875,1.9375 -2.640625,3.875 C 1.3125,-0.734375 0.75,-1.28125 0.75,-2 c 0,-0.28125 0.234375,-1.375 0.828125,-2.0625 0.09375,-0.09375 0.09375,-0.109375 0.09375,-0.140625 0,-0.03125 -0.03125,-0.09375 -0.125,-0.09375 -0.28125,0 -1.046875,1.453125 -1.046875,2.40625 0,0.9375 0.65625,1.65625 1.71875,1.90625 z m 1.390625,-2.15625 c -0.09375,0 -0.109375,0 -0.1875,-0.015625 -0.125,0 -0.125,0 -0.125,-0.03125 0,-0.015625 0.171875,-0.9375 0.1875,-1.078125 0.3125,-1.28125 1.09375,-2.234375 1.984375,-2.234375 0.6875,0 0.953125,0.53125 0.953125,1.015625 0,1.125 -1.28125,2.34375 -2.8125,2.34375 z m 0,0"
               id="id-e1d85935-0f3d-47cb-aa2e-99f44c3b1c8d" /></symbol></g></defs><text
         xml:space="preserve"
         style="font-size:0.299858px;line-height:0.7;font-family:'Nimbus Roman';-inkscape-font-specification:'Nimbus Roman, ';letter-spacing:0px;word-spacing:0px;fill:none;stroke:#000000;stroke-width:0.0160638px;stroke-linecap:butt;stroke-linejoin:miter;stroke-opacity:1"
         x="-2.5365949"
         y="-3.1302845"
         id="text23947"
         transform="matrix(1.2126348,-0.05354336,0.07907014,0.82115927,0,0)"><tspan
           style="font-style:normal;font-variant:normal;font-weight:bold;font-stretch:normal;font-size:0.299858px;font-family:'Nimbus Roman';-inkscape-font-specification:'Nimbus Roman,  Bold';fill:#282828;fill-opacity:1;stroke:none;stroke-width:0.0160638px"
           sodipodi:role="line"
           id="tspan70512"
           x="-2.5365949"
           y="-3.1302845">Sophie Ribardière</tspan><tspan
           style="font-size:0.214184px;fill:#282828;fill-opacity:1;stroke:none;stroke-width:0.0160638px"
           sodipodi:role="line"
           id="tspan73158"
           x="-2.5365949"
           y="-2.9190996" /><tspan
           style="font-size:0.214184px;fill:#282828;fill-opacity:1;stroke:none;stroke-width:0.0160638px"
           sodipodi:role="line"
           x="-2.5365949"
           y="-2.7091992"
           id="tspan4970">Psychologue du développement</tspan><tspan
           sodipodi:role="line"
           style="font-size:0.214184px;fill:#282828;fill-opacity:1;stroke:none;stroke-width:0.0160638px"
           x="-2.5365949"
           y="-2.4992986"
           id="tspan40740">Enfants - Adolescents - Parents</tspan><tspan
           sodipodi:role="line"
           style="font-size:0.214184px;fill:#282828;fill-opacity:1;stroke:none;stroke-width:0.0160638px"
           x="-2.5365949"
           y="-2.289398"
           id="tspan162327" /><tspan
           sodipodi:role="line"
           style="font-size:0.192766px;fill:#282828;fill-opacity:1;stroke:none;stroke-width:0.0160638px"
           x="-2.5365949"
           y="-2.0794973"
           id="tspan162329">Accompagnement individuel</tspan><tspan
           sodipodi:role="line"
           style="font-size:0.192766px;fill:#282828;fill-opacity:1;stroke:none;stroke-width:0.0160638px"
           x="-2.5365949"
           y="-1.8695967"
           id="tspan162331">Bilans psychologiques</tspan></text><rect
         style="opacity:1;fill:#ff8f50;fill-opacity:1;stroke:#000000;stroke-width:0.00607546;stroke-linecap:round;stroke-miterlimit:4;stroke-dasharray:none;stroke-opacity:1"
         id="rect56768"
         width="7.0846415"
         height="0.78400797"
         x="-5.9883175"
         y="-1.1547855"
         transform="matrix(0.99902661,-0.04411159,0.09584762,0.99539602,0,0)" /><text
         xml:space="preserve"
         style="font-size:0.149929px;line-height:1.2;font-family:'Nimbus Roman';-inkscape-font-specification:'Nimbus Roman, ';letter-spacing:0px;word-spacing:0px;fill:#ffffff;fill-opacity:1;stroke:none;stroke-width:0.0160638px;stroke-linecap:butt;stroke-linejoin:miter;stroke-opacity:1"
         x="-4.4986134"
         y="-1.1912414"
         id="text23947-8"
         transform="matrix(1.2126348,-0.05354336,0.07907014,0.82115927,0,0)"><tspan
           sodipodi:role="line"
           style="font-size:0.149929px;fill:#ffffff;fill-opacity:1;stroke:none;stroke-width:0.0160638px;stroke-opacity:1"
           x="-4.4986134"
           y="-1.1912414"
           id="tspan40740-7">6 rue Blaise Pascal</tspan><tspan
           sodipodi:role="line"
           style="font-size:0.149929px;fill:#ffffff;fill-opacity:1;stroke:none;stroke-width:0.0160638px;stroke-opacity:1"
           x="-4.4986134"
           y="-1.0113266"
           id="tspan7633">86130 Jaunay-Marigny</tspan><tspan
           sodipodi:role="line"
           style="font-size:0.149929px;fill:#ffffff;fill-opacity:1;stroke:none;stroke-width:0.0160638px;stroke-opacity:1"
           x="-4.4986134"
           y="-0.83141178"
           id="tspan63316" /></text><text
         xml:space="preserve"
         style="font-size:0.128511px;line-height:1.2;font-family:'Nimbus Roman';-inkscape-font-specification:'Nimbus Roman, ';letter-spacing:0px;word-spacing:0px;fill:#ffffff;fill-opacity:1;stroke:none;stroke-width:0.0160638px;stroke-linecap:butt;stroke-linejoin:miter;stroke-opacity:1"
         x="-4.5158324"
         y="-0.73340005"
         id="text23947-8-2"
         transform="matrix(1.2126348,-0.05354336,0.07907014,0.82115927,0,0)"><tspan
           sodipodi:role="line"
           style="font-style:italic;font-variant:normal;font-weight:normal;font-stretch:normal;font-size:0.128511px;font-family:'Nimbus Roman';-inkscape-font-specification:'Nimbus Roman,  Italic';fill:#ffffff;fill-opacity:1;stroke:none;stroke-width:0.0160638px;stroke-opacity:1"
           x="-4.5158324"
           y="-0.73340005"
           id="tspan63316-0">N° ADELLI : 86 93 0445 1</tspan></text><text
         xml:space="preserve"
         style="font-size:0.149929px;line-height:0;font-family:'Nimbus Roman';-inkscape-font-specification:'Nimbus Roman, ';letter-spacing:0px;word-spacing:0px;fill:#ffffff;fill-opacity:1;stroke:none;stroke-width:0.0160638px;stroke-linecap:butt;stroke-linejoin:miter;stroke-opacity:1"
         x="-1.809106"
         y="-1.1805317"
         id="text23947-8-4"
         transform="matrix(1.2126348,-0.05354336,0.07907014,0.82115927,0,0)"><tspan
           sodipodi:role="line"
           style="font-size:0.149929px;line-height:1.5;fill:#ffffff;fill-opacity:1;stroke:none;stroke-width:0.0160638px;stroke-opacity:1"
           x="-1.809106"
           y="-1.1805317"
           id="tspan63314-0">Sur rendez-vous : </tspan><tspan
           style="font-size:0.149929px;line-height:1.1;fill:#ffffff;fill-opacity:1;stroke:none;stroke-width:0.0160638px;stroke-opacity:1"
           sodipodi:role="line"
           id="tspan48929"
           x="-1.809106"
           y="-0.98562402">       06 67 49 19 99</tspan><tspan
           sodipodi:role="line"
           style="font-size:0.149929px;line-height:1.5;fill:#ffffff;fill-opacity:1;stroke:none;stroke-width:0.0160638px;stroke-opacity:1"
           x="-1.809106"
           y="-0.79071635"
           id="tspan63316-3">       sophie.ribardiere.psy@gmail.com</tspan></text><g
         id="g40396"
         transform="matrix(1.1926437,0,0,1.1926437,1.1719822,0.23369689)"><path
           style="font-size:222.193px;fill:#2c211a;fill-opacity:1;stroke:#2c211a;stroke-width:0.000907948;stroke-linecap:round;stroke-linejoin:round;stroke-dasharray:none;stroke-opacity:1"
           d="m -4.2555208,-1.8667276 -0.014328,-0.00828 0.013184,0.004 -0.00846,-0.010027 0.0094,0.00454 -0.00413,-0.00873 0.00675,0.00366 -6.43e-4,-0.00851 0.00559,0.00297 5.054e-4,-0.00993 0.00289,0.00718 c 0,0 0.00289,-0.00991 0.00312,-0.00942 2.237e-4,4.845e-4 0.0023,0.00683 0.0023,0.00683 l 0.00469,-0.00825 -3.57e-5,0.00533 0.00325,-0.00609 0.00151,0.00427 0.00281,-0.00693 0.00148,0.00588 0.00491,-0.0075 -4.576e-4,0.00631 0.00358,-0.00462 0.00153,0.00451 0.00793,-0.00691 -0.00221,0.00555 0.00781,-0.00629 5.234e-4,0.00542 0.00439,-0.00564 8.045e-4,0.00653 0.00822,-0.00581 -0.00162,0.00601 0.00868,-0.00484 -0.00233,0.00617 0.010121,-0.00503 -0.00472,0.00603 0.00955,-0.00141 -0.00496,0.00356 0.014407,-3.888e-4 -0.010164,0.00268 0.012365,0.00119 -0.0086,0.00187 -0.00218,0.00208 z"
           id="path21943-0"
           sodipodi:nodetypes="ccccccccccccccccccccccccccccccccccccccccccc" /><ellipse
           style="font-size:222.193px;fill:#d38d5f;fill-opacity:1;stroke:#00000e;stroke-width:0.00214698;stroke-linecap:round;stroke-dasharray:none;stroke-opacity:1"
           id="path16055-7"
           cx="-2.5022004"
           cy="-3.1556697"
           rx="0.0056277802"
           ry="0.0029789049"
           transform="matrix(0.95548208,-0.29504914,0.55856482,0.82946087,0,0)" /><ellipse
           style="font-size:222.193px;fill:#d38d5f;fill-opacity:1;stroke:#00000e;stroke-width:0.00210488;stroke-linecap:round;stroke-dasharray:none;stroke-opacity:1"
           id="path16055-5-4"
           cx="-3.9062049"
           cy="-2.1870072"
           rx="0.0058896025"
           ry="0.0027359382"
           transform="matrix(0.99706554,-0.07655267,0.16513516,0.98627095,0,0)" /><path
           style="font-size:222.193px;fill:none;fill-opacity:1;stroke:#000000;stroke-width:0.00907948;stroke-linecap:round;stroke-dasharray:none;stroke-opacity:1"
           d="m -4.1842123,-1.8120104 c 0,0 -0.052748,0.00243 -0.077456,-0.00874 -0.021697,-0.00981 -0.048718,-0.021101 -0.048718,-0.021101"
           id="path2139-4"
           sodipodi:nodetypes="csc" /><path
           style="font-size:222.193px;fill:none;fill-opacity:1;stroke:#000000;stroke-width:0.00907948;stroke-linecap:round;stroke-dasharray:none;stroke-opacity:1"
           d="m -4.1788088,-1.7528464 c 0,0 0.041109,0.040665 0.055459,0.05973 0.00529,0.00703 0.00812,0.020016 0.00946,0.028252 7.208e-4,0.00444 0.021046,0.01058 0.021046,0.01058"
           id="path2115-4"
           sodipodi:nodetypes="cssc" /><path
           style="font-size:222.193px;fill:none;fill-opacity:1;stroke:#000000;stroke-width:0.00907948;stroke-linecap:round;stroke-dasharray:none;stroke-opacity:1"
           d="m -4.1114774,-1.7662243 c 0,0 0.064089,0.023347 0.089762,0.035824 0.00835,0.00406 0.021561,0.018109 0.028398,0.024856 0.0051,0.00504 0.028058,-0.00132 0.028058,-0.00132"
           id="path2115-3-79"
           sodipodi:nodetypes="cssc" /><path
           style="font-size:222.193px;fill:none;fill-opacity:1;stroke:#000000;stroke-width:0.00907948;stroke-linecap:round;stroke-dasharray:none;stroke-opacity:1"
           d="m -4.1624336,-1.817314 c 0,0 0.034507,-0.010886 0.050992,-0.023066 0.026335,-0.019456 0.04269,-0.050319 0.04269,-0.050319"
           id="path2141-2"
           sodipodi:nodetypes="csc" /><path
           id="path6844-6"
           style="font-size:222.193px;fill:#ff7f2a;fill-opacity:1;stroke:#000000;stroke-width:0.00363178;stroke-linecap:round;stroke-dasharray:none;stroke-opacity:1"
           d="m -4.0633069,-1.7618003 -0.1264031,0.039259 c 0,0 -0.010834,-0.030155 -0.012389,-0.046023 -0.00224,-0.022793 0.00419,-0.069505 0.00419,-0.069505 l 0.015737,-0.00367 c 0,0 0.039125,0.027103 0.059022,0.040493 0.019896,0.01339 0.059843,0.039443 0.059843,0.039443 z"
           sodipodi:nodetypes="ccscczcc"
           inkscape:transform-center-y="-2.5587318e-05" /><path
           style="font-size:222.193px;fill:none;fill-opacity:1;stroke:#000000;stroke-width:0.0381473;stroke-linecap:round;stroke-dasharray:none;stroke-opacity:1"
           d="m -4.2596477,-1.7077753 0.2626518,-0.070979"
           id="path2151-2"
           sodipodi:nodetypes="cc" /><path
           style="font-size:222.193px;fill:none;fill-opacity:1;stroke:#000000;stroke-width:0.0169543;stroke-linecap:round;stroke-dasharray:none;stroke-opacity:1"
           d="m -4.4935725,-2.0133278 c 0,0 0.079872,0.046025 0.1418296,0.1067513 0.1006965,0.098695 0.1179222,0.1863061 0.1179222,0.1863061"
           id="path2174-3"
           sodipodi:nodetypes="csc" /><path
           style="font-size:222.193px;fill:none;fill-opacity:1;stroke:#000000;stroke-width:0.0169543;stroke-linecap:round;stroke-dasharray:none;stroke-opacity:1"
           d="m -4.0287646,-1.7721872 c -0.010643,-0.011074 -0.0094,-0.1023299 -0.1385182,-0.1844264 -0.1291188,-0.082097 -0.183224,-0.07966 -0.183224,-0.07966"
           id="path2198-3"
           sodipodi:nodetypes="czc" /><path
           style="font-size:222.193px;fill:none;fill-opacity:1;stroke:#000000;stroke-width:0.0044416;stroke-linecap:round;stroke-dasharray:none;stroke-opacity:1"
           d="m -5.2950332,-1.5024658 c 0,0 0.030629,0.016759 0.038359,0.04215 0.00842,0.027654 -0.00239,0.061924 -0.00239,0.061924"
           id="path2334-84"
           sodipodi:nodetypes="csc" /><path
           style="font-size:222.193px;fill:none;fill-opacity:1;stroke:#000000;stroke-width:0.0044416;stroke-linecap:round;stroke-dasharray:none;stroke-opacity:1"
           d="m -5.0890779,-1.5008646 c 0,0 0.015759,0.024437 0.00532,0.04938 -0.011369,0.027166 -0.044309,0.054194 -0.044309,0.054194"
           id="path2334-3-0"
           sodipodi:nodetypes="csc" /><path
           style="font-size:222.193px;fill:none;fill-opacity:1;stroke:#000000;stroke-width:0.0044416;stroke-linecap:round;stroke-dasharray:none;stroke-opacity:1"
           d="m -4.8501624,-1.5131116 c 0,0 0.016896,0.024086 0.00763,0.04924 -0.01009,0.027396 -0.041747,0.055119 -0.041747,0.055119"
           id="path2334-38-5"
           sodipodi:nodetypes="csc" /><path
           style="font-size:222.193px;fill:none;fill-opacity:1;stroke:#000000;stroke-width:0.0044416;stroke-linecap:round;stroke-dasharray:none;stroke-opacity:1"
           d="m -4.6910747,-1.5109343 c 0,0 0.00637,0.026314 -0.012837,0.048742 -0.020915,0.024426 -0.062686,0.045114 -0.062686,0.045114"
           id="path2334-5-5"
           sodipodi:nodetypes="csc" /><path
           style="font-size:222.193px;fill:none;fill-opacity:1;stroke:#000000;stroke-width:0.0044416;stroke-linecap:round;stroke-dasharray:none;stroke-opacity:1"
           d="m -4.4157574,-1.5322767 c 0,0 0.00188,0.025453 0.018419,0.048834 0.018011,0.025465 0.053518,0.046305 0.053518,0.046305"
           id="path2334-2-0"
           sodipodi:nodetypes="csc" /><path
           style="font-size:222.193px;fill:none;fill-opacity:1;stroke:#000000;stroke-width:0.0044416;stroke-linecap:round;stroke-dasharray:none;stroke-opacity:1"
           d="m -4.2721838,-1.5351821 c 0,0 0.00502,0.029963 0.030522,0.049301 0.02777,0.021061 0.077693,0.028509 0.077693,0.028509"
           id="path2334-4-3"
           sodipodi:nodetypes="csc" /><path
           style="font-size:222.193px;fill:none;fill-opacity:1;stroke:#000000;stroke-width:0.0044416;stroke-linecap:round;stroke-dasharray:none;stroke-opacity:1"
           d="m -4.5427535,-1.5296736 c 0,0 0.013846,0.028369 0.021577,0.05376 0.00842,0.027654 0.014389,0.050314 0.014389,0.050314"
           id="path2334-8-8"
           sodipodi:nodetypes="csc" /><path
           style="font-size:222.193px;fill:none;fill-opacity:1;stroke:#000000;stroke-width:0.0044416;stroke-linecap:round;stroke-dasharray:none;stroke-opacity:1"
           d="m -4.1389123,-1.5566268 c 0,0 0.010785,0.036181 0.040689,0.052369 0.032457,0.017569 0.068312,0.033878 0.068312,0.033878"
           id="path2334-59-7"
           sodipodi:nodetypes="csc" /><path
           id="path2277-55-8"
           style="font-size:222.193px;fill:#ff000d;stroke:#000000;stroke-width:0.00148054;stroke-linecap:round;stroke-dasharray:none;stroke-opacity:1"
           inkscape:transform-center-x="0.060170836"
           inkscape:transform-center-y="-0.13073011"
           d="m -5.2661613,-1.4991153 c -0.0097,0.00747 -0.026764,0.011775 -0.041307,0.010385 -0.01425,-0.00136 -0.033703,-0.012032 -0.041162,-0.020423 -0.00746,-0.00839 -0.036043,-0.024659 -0.033723,-0.036064 0.00232,-0.011405 0.078973,0.018344 0.078973,0.018344 0,0 0.017246,-0.053372 0.029048,-0.04629 0.011802,0.00708 0.015999,0.032611 0.018899,0.042787 0.00299,0.010504 -2.892e-4,0.023231 -0.010728,0.031261 z"
           sodipodi:nodetypes="sszzczss" /><path
           id="path2277-55-9-2"
           style="font-size:222.193px;fill:#ff000d;stroke:#000000;stroke-width:0.00148054;stroke-linecap:round;stroke-dasharray:none;stroke-opacity:1"
           inkscape:transform-center-x="0.046440945"
           inkscape:transform-center-y="-0.10919596"
           d="m -5.0658863,-1.4793049 c -0.010344,0.00706 -0.027752,0.010674 -0.042148,0.0087 -0.014105,-0.00194 -0.032585,-0.01337 -0.039292,-0.022048 -0.00671,-0.00868 -0.03381,-0.02607 -0.03049,-0.03736 0.00332,-0.011291 0.077219,0.021497 0.077219,0.021497 0,0 0.02191,-0.052582 0.033068,-0.045036 0.011158,0.00755 0.013102,0.033198 0.015101,0.043474 0.00206,0.010606 -0.00233,0.023178 -0.013459,0.030773 z"
           sodipodi:nodetypes="sszzczss" /><path
           id="path2277-55-9-7-8"
           style="font-size:222.193px;fill:#ff000d;stroke:#000000;stroke-width:0.00148054;stroke-linecap:round;stroke-dasharray:none;stroke-opacity:1"
           inkscape:transform-center-x="-0.11432376"
           inkscape:transform-center-y="-0.031985553"
           d="m -4.8174187,-1.4844932 c -0.013142,0.00444 -0.031342,0.00408 -0.044041,-9.153e-4 -0.012443,-0.0049 -0.02453,-0.019742 -0.026773,-0.029417 -0.00224,-0.00968 -0.019675,-0.032036 -0.011182,-0.042009 0.00849,-0.00997 0.062956,0.037134 0.062956,0.037134 0,0 0.04566,-0.045044 0.052654,-0.035473 0.00699,0.00957 -0.00332,0.03429 -0.00629,0.044457 -0.00307,0.010494 -0.013188,0.021447 -0.027324,0.026223 z"
           sodipodi:nodetypes="sszzczss" /><path
           id="path2277-55-9-7-0-8"
           style="font-size:222.193px;fill:#ff000d;stroke:#000000;stroke-width:0.00148054;stroke-linecap:round;stroke-dasharray:none;stroke-opacity:1"
           inkscape:transform-center-x="-0.038972208"
           inkscape:transform-center-y="-0.028691026"
           d="m -4.3874475,-1.5154681 c -0.01217,0.00557 -0.030283,0.00683 -0.043839,0.003 -0.013283,-0.00375 -0.028137,-0.017396 -0.032232,-0.026789 -0.0041,-0.00939 -0.025703,-0.030015 -0.019212,-0.040655 0.00649,-0.010641 0.069597,0.031229 0.069597,0.031229 0,0 0.036553,-0.048706 0.045338,-0.039838 0.00879,0.00887 0.00335,0.034289 0.00237,0.044632 -0.00101,0.010676 -0.00893,0.022432 -0.022016,0.028421 z"
           sodipodi:nodetypes="sszzczss" /><path
           id="path2277-55-9-7-2-8"
           style="font-size:222.193px;fill:#ff000d;stroke:#000000;stroke-width:0.00148054;stroke-linecap:round;stroke-dasharray:none;stroke-opacity:1"
           inkscape:transform-center-x="-0.060328738"
           inkscape:transform-center-y="-0.011396129"
           d="m -4.1158198,-1.5479945 c -0.012472,0.00525 -0.030642,0.00605 -0.043975,0.00188 -0.013064,-0.00409 -0.027145,-0.018104 -0.030712,-0.027595 -0.00357,-0.00949 -0.024007,-0.030652 -0.016927,-0.041118 0.00708,-0.010467 0.067802,0.03299 0.067802,0.03299 0,0 0.039247,-0.047735 0.047531,-0.038648 0.00828,0.00909 0.00143,0.03435 -1.306e-4,0.04466 -0.00161,0.010642 -0.010172,0.022187 -0.023588,0.027837 z"
           sodipodi:nodetypes="sszzczss" /><path
           id="path2277-55-1-2"
           style="font-size:222.193px;fill:#ff000d;stroke:#000000;stroke-width:0.00148054;stroke-linecap:round;stroke-dasharray:none;stroke-opacity:1"
           inkscape:transform-center-x="0.019617779"
           inkscape:transform-center-y="-0.077221584"
           d="m -4.6676692,-1.4984362 c -0.011136,0.00649 -0.028911,0.00916 -0.043031,0.00642 -0.013835,-0.00268 -0.028576,-0.013733 -0.037027,-0.022678 -0.00845,-0.00894 -0.030233,-0.0292 -0.025606,-0.040278 0.00463,-0.011078 0.063822,0.010794 0.063822,0.010794 0,0 0.038624,-0.036478 0.048866,-0.028359 0.010243,0.00812 0.00919,0.033796 0.00998,0.044146 8.285e-4,0.010683 -0.00503,0.022981 -0.017007,0.029956 z"
           sodipodi:nodetypes="sszzczss" /><path
           id="path2277-55-1-00-9"
           style="font-size:222.193px;fill:#ff000d;stroke:#000000;stroke-width:0.00148054;stroke-linecap:round;stroke-dasharray:none;stroke-opacity:1"
           inkscape:transform-center-x="-0.038884798"
           inkscape:transform-center-y="-0.028749176"
           d="m -4.521956,-1.5171819 c -0.01217,0.00557 -0.030282,0.00683 -0.043839,0.003 -0.013283,-0.00375 -0.026036,-0.015882 -0.032899,-0.025429 -0.00686,-0.00955 -0.025035,-0.031374 -0.018546,-0.042015 0.00649,-0.010641 0.061547,0.015727 0.061547,0.015727 0,0 0.044603,-0.033204 0.053388,-0.024335 0.00879,0.00887 0.00335,0.034289 0.00237,0.044632 -0.00101,0.010676 -0.00893,0.022432 -0.022016,0.028421 z"
           sodipodi:nodetypes="sszzczss" /><path
           id="path2277-55-1-0-5"
           style="font-size:222.193px;fill:#ff000d;stroke:#000000;stroke-width:0.00148054;stroke-linecap:round;stroke-dasharray:none;stroke-opacity:1"
           inkscape:transform-center-x="-0.038894351"
           inkscape:transform-center-y="-0.028747961"
           d="m -4.2482117,-1.5368114 c -0.01217,0.00557 -0.030283,0.00683 -0.043839,0.003 -0.013283,-0.00375 -0.026035,-0.015882 -0.032899,-0.025429 -0.00686,-0.00955 -0.025035,-0.031374 -0.018545,-0.042015 0.00649,-0.010641 0.061547,0.015727 0.061547,0.015727 0,0 0.044603,-0.033204 0.053388,-0.024335 0.00879,0.00887 0.00335,0.034289 0.00237,0.044632 -0.00101,0.010676 -0.00893,0.022432 -0.022016,0.028421 z"
           sodipodi:nodetypes="sszzczss" /><path
           style="font-size:222.193px;fill:none;stroke:#000000;stroke-width:0.0254314;stroke-linecap:round;stroke-dasharray:none;stroke-opacity:1"
           d="m -5.4758017,-2.168162 c 0,0 -0.1856501,0.055373 -0.1114565,0.1473419 0.033855,0.041965 0.099686,0.089797 0.6255599,0.057461 0.6900819,-0.042433 1.0403979,-0.2013063 1.0403979,-0.2013063"
           id="path1262-7"
           sodipodi:nodetypes="cssc" /><path
           style="font-size:222.193px;fill:none;stroke:#000000;stroke-width:0.0423857;stroke-linecap:round;stroke-dasharray:none;stroke-opacity:1"
           d="m -4.894999,-2.2067544 c 0,0 0.023658,0.061619 0.02625,0.1024195 0.02464,0.3878252 -0.1456873,0.6912272 -0.1456873,0.6912272"
           id="path1264-0"
           sodipodi:nodetypes="csc" /><ellipse
           style="font-size:222.193px;fill:#d38d5f;fill-opacity:1;stroke:#000000;stroke-width:0.00442491;stroke-linecap:round;stroke-dasharray:none;stroke-opacity:1"
           id="path2057-9"
           cx="-0.012085862"
           cy="-4.5949821"
           rx="0.038211793"
           ry="0.042289652"
           transform="matrix(0.76298873,-0.64641179,0.91292712,0.40812261,0,0)" /><ellipse
           style="font-size:222.193px;fill:none;fill-opacity:1;stroke:#00000e;stroke-width:0.00420421;stroke-linecap:round;stroke-dasharray:none;stroke-opacity:1"
           id="path11255-7"
           cx="-4.0282679"
           cy="-2.0543668"
           rx="0.0025299287"
           ry="0.0014328653"
           transform="matrix(0.99902661,-0.04411162,0.09584733,0.99539605,0,0)" /><ellipse
           style="font-size:222.193px;fill:none;fill-opacity:1;stroke:#00000e;stroke-width:0.00420421;stroke-linecap:round;stroke-dasharray:none;stroke-opacity:1"
           id="path11255-4-4"
           cx="-3.9973259"
           cy="-2.0603058"
           rx="0.0025299287"
           ry="0.0014328653"
           transform="matrix(0.99902661,-0.04411162,0.09584733,0.99539605,0,0)" /><path
           style="font-size:222.193px;fill:none;fill-opacity:1;stroke:#00000e;stroke-width:0.00210068;stroke-linecap:round;stroke-dasharray:none;stroke-opacity:1"
           d="m -4.2091543,-1.8514208 c 0.01424,-0.00149 0.018718,-0.00232 0.025174,-0.00655 0.00158,-0.00104 0.00256,-0.00412 0.00256,-0.00412"
           id="path16053-4"
           sodipodi:nodetypes="csc" /><ellipse
           style="font-size:222.193px;fill:#ffe1cd;fill-opacity:1;stroke:#00000e;stroke-width:0.00211683;stroke-linecap:round;stroke-dasharray:none;stroke-opacity:1"
           id="path16055-6-4"
           cx="5.7305946"
           cy="0.95507282"
           rx="0.0058272919"
           ry="0.0027967002"
           transform="matrix(-0.98782827,-0.15554841,0.32477631,-0.94579086,0,0)" /><ellipse
           style="font-size:222.193px;fill:#ffe1cd;fill-opacity:1;stroke:#00000e;stroke-width:0.00216356;stroke-linecap:round;stroke-dasharray:none;stroke-opacity:1"
           id="path16055-5-7-2"
           cx="5.4053359"
           cy="-0.37162644"
           rx="0.0054654796"
           ry="0.0031149492"
           transform="matrix(-0.92555491,-0.3786134,0.66568918,-0.74622913,0,0)" /><path
           style="font-size:222.193px;fill:none;fill-opacity:1;stroke:#000000;stroke-width:0.00907948;stroke-linecap:round;stroke-dasharray:none;stroke-opacity:1"
           d="m -5.2657149,-1.8352304 c 0,0 0.035239,0.020257 0.044752,0.039313 0.00835,0.016734 0.017999,0.050785 0.017999,0.050785"
           id="path2139-3-4"
           sodipodi:nodetypes="csc" /><path
           style="font-size:222.193px;fill:none;fill-opacity:1;stroke:#000000;stroke-width:0.00907948;stroke-linecap:round;stroke-dasharray:none;stroke-opacity:1"
           d="m -5.2166826,-1.8843356 c 0,0 0.00528,-0.068868 0.011095,-0.089902 0.00214,-0.00776 0.055462,0.04959 0.059342,0.048928 0.0064,-0.00109 0.015294,-0.00966 0.015294,-0.00966"
           id="path2115-0-6"
           sodipodi:nodetypes="cssc" /><path
           style="font-size:222.193px;fill:none;fill-opacity:1;stroke:#000000;stroke-width:0.00907948;stroke-linecap:round;stroke-dasharray:none;stroke-opacity:1"
           d="m -5.2820806,-1.901559 c 0,0 -0.011601,-0.049982 -0.02784,-0.069459 -0.00505,-0.00606 -0.023691,0.047446 -0.029924,0.045534 -0.00822,-0.00252 -0.023415,-0.01055 -0.023415,-0.01055"
           id="path2115-3-7-2"
           sodipodi:nodetypes="cssc" /><path
           style="font-size:222.193px;fill:none;fill-opacity:1;stroke:#000000;stroke-width:0.00907948;stroke-linecap:round;stroke-dasharray:none;stroke-opacity:1"
           d="m -5.3069708,-1.8491388 c 0,0 -0.041474,0.00238 -0.05716,0.015037 -0.030984,0.024993 -0.0453,0.066083 -0.0453,0.066083"
           id="path2141-3-1"
           sodipodi:nodetypes="csc" /><path
           id="path6844-9-6"
           style="font-size:222.193px;fill:#ffd42a;fill-opacity:1;stroke:#000000;stroke-width:0.00363178;stroke-linecap:round;stroke-dasharray:none;stroke-opacity:1"
           inkscape:transform-center-x="-0.4431758"
           d="m -5.3162572,-1.9249684 0.135519,0.021128 c 0,0 -0.018589,0.028367 -0.031657,0.041581 -0.01877,0.01898 -0.065951,0.053334 -0.065951,0.053334 l -0.015772,-0.0036 c 0,0 -0.017897,-0.040405 -0.021593,-0.059234 -0.0037,-0.01883 -5.473e-4,-0.053211 -5.473e-4,-0.053211 z"
           sodipodi:nodetypes="ccscczc"
           inkscape:transform-center-y="0.19801263" /><ellipse
           style="font-size:222.193px;fill:#ffe1cd;fill-opacity:1;stroke:#000000;stroke-width:0.00430198;stroke-linecap:round;stroke-dasharray:none;stroke-opacity:1"
           id="path2057-6-6"
           cx="4.1093607"
           cy="2.7533956"
           rx="0.045975365"
           ry="0.033222847"
           transform="matrix(-0.98652622,0.16360325,-0.452521,-0.89175375,0,0)" /><ellipse
           style="font-size:222.193px;fill:none;fill-opacity:1;stroke:#00000e;stroke-width:0.00433835;stroke-linecap:round;stroke-dasharray:none;stroke-opacity:1"
           id="path11255-8-3"
           cx="5.3361535"
           cy="-0.60840523"
           rx="0.0023100239"
           ry="0.0016709937"
           transform="matrix(-0.91035371,-0.41383103,0.7040215,-0.71017866,0,0)" /><ellipse
           style="font-size:222.193px;fill:none;fill-opacity:1;stroke:#00000e;stroke-width:0.00433835;stroke-linecap:round;stroke-dasharray:none;stroke-opacity:1"
           id="path11255-4-9-3"
           cx="5.3644052"
           cy="-0.61533123"
           rx="0.0023100239"
           ry="0.0016709937"
           transform="matrix(-0.91035371,-0.41383103,0.7040215,-0.71017866,0,0)" /><path
           style="font-size:222.193px;fill:none;fill-opacity:1;stroke:#00000e;stroke-width:0.00210068;stroke-linecap:round;stroke-dasharray:none;stroke-opacity:1"
           d="m -5.2814676,-1.7937013 c -0.012623,-0.0047 -0.016917,-0.0059 -0.02585,-0.00521 -0.00219,1.685e-4 -0.00575,0.00221 -0.00575,0.00221"
           id="path16053-0-5"
           sodipodi:nodetypes="csc" /><path
           style="font-size:222.193px;fill:#552200;fill-opacity:1;stroke:none;stroke-width:0.000907945;stroke-linecap:round;stroke-linejoin:round;stroke-dasharray:none;stroke-opacity:1"
           d="m -5.3483347,-1.7918759 c 0.00528,-4.038e-4 0.012763,0.00747 0.022162,0.018212 0.0094,0.010743 0.020489,0.014573 0.020489,0.014573 0,0 0.011695,-0.00317 0.017788,-0.0042 0.00963,-0.00163 0.029415,-0.00308 0.029415,-0.00308 0,0 0.00691,0.00509 0.00775,0.00832 0.00656,0.025114 0.00791,0.082112 0.00791,0.082112 0,0 -0.010319,0.004 -0.012111,-4.546e-4 -0.017188,-0.042738 -0.00611,-0.082439 -0.00611,-0.082439 0,0 -0.035262,0.013072 -0.052571,0.00942 -0.00849,-0.00179 -0.018655,-0.00777 -0.025446,-0.014213 -0.00761,-0.00722 -0.011363,-0.014868 -0.011363,-0.014868 -0.00259,0.00558 0.0058,0.055985 0.00674,0.1032892 1.041e-4,0.00519 -0.017344,0.00646 -0.017795,0.00128 -0.00476,-0.054743 -0.00311,-0.069992 0.00451,-0.1126233 4.695e-4,-0.00262 0.00476,-0.00504 0.00863,-0.00533 z"
           id="path26518-6"
           sodipodi:nodetypes="szcacscscssssssss" /><path
           style="font-size:222.193px;fill:none;fill-opacity:1;stroke:#397ec4;stroke-width:0.00363178;stroke-linecap:round;stroke-linejoin:round;stroke-dasharray:none;stroke-opacity:1"
           d="m -5.357624,-1.784835 0.00822,0.00752"
           id="path27300-8"
           sodipodi:nodetypes="cc" /><path
           style="font-size:222.193px;fill:none;fill-opacity:1;stroke:#397ec4;stroke-width:0.00363178;stroke-linecap:round;stroke-linejoin:round;stroke-dasharray:none;stroke-opacity:1"
           d="m -5.2639031,-1.7572732 0.00905,-0.00707"
           id="path27300-1-5"
           sodipodi:nodetypes="cc" /><g
           id="g36520"
           transform="matrix(0.01042399,0.00548654,-0.00810216,0.00705881,-7.9292172,-3.2363498)"
           style="font-size:222.193px;stroke-width:3.33288"><path
             id="path2277-9-74-1-4-6"
             style="font-size:222.193px;fill:#e79b53;fill-opacity:1;stroke:#000000;stroke-width:0.167143;stroke-linecap:round;stroke-dasharray:none;stroke-opacity:1"
             inkscape:transform-center-x="0.13679404"
             inkscape:transform-center-y="0.35009014"
             d="m 271.3499,-57.15748 c -0.84156,-0.385029 -1.53569,-1.29849 -1.67626,-2.213224 -0.13773,-0.896275 0.30347,-1.886442 0.91541,-2.561742 0.61197,-0.675275 1.42584,-1.007866 2.48409,-1.174095 1.05826,-0.166226 4.36537,-0.345718 4.36537,-0.345718 0,0 -0.89876,2.930001 -1.31517,3.832203 -0.41644,0.90219 -0.93936,1.822228 -1.79332,2.270414 -0.88141,0.462612 -2.07492,0.606312 -2.98012,0.192162 z"
             sodipodi:nodetypes="sszzczss" /><path
             id="path2277-9-74-1-54-0-6"
             style="font-size:222.193px;fill:#68d256;fill-opacity:1;stroke:#000000;stroke-width:0.167143;stroke-linecap:round;stroke-dasharray:none;stroke-opacity:1"
             inkscape:transform-center-x="0.13679349"
             inkscape:transform-center-y="-0.3500899"
             d="m 271.41293,-69.744381 c -0.84156,0.385028 -1.53568,1.29849 -1.67626,2.213224 -0.13773,0.896275 0.30347,1.886442 0.91541,2.561741 0.61197,0.675275 1.42584,1.007867 2.48409,1.174096 1.05827,0.166226 4.36538,0.345717 4.36538,0.345717 0,0 -0.89876,-2.930001 -1.31518,-3.832202 -0.41644,-0.902191 -0.93936,-1.822228 -1.79331,-2.270415 -0.88141,-0.462611 -2.07493,-0.606311 -2.98013,-0.192161 z"
             sodipodi:nodetypes="sszzczss" /><path
             id="path2277-9-74-1-54-6-9-9"
             style="font-size:222.193px;fill:#e45344;fill-opacity:1;stroke:#000000;stroke-width:0.167143;stroke-linecap:round;stroke-dasharray:none;stroke-opacity:1"
             inkscape:transform-center-x="-0.13679034"
             inkscape:transform-center-y="-0.35009"
             d="m 283.46711,-69.698497 c 0.84156,0.385029 1.53568,1.298491 1.67626,2.213225 0.13773,0.896274 -0.30347,1.886441 -0.91541,2.561741 -0.61197,0.675275 -1.42584,1.007866 -2.48409,1.174096 -1.05826,0.166225 -4.36538,0.345717 -4.36538,0.345717 0,0 0.89876,-2.930001 1.31518,-3.832203 0.41644,-0.90219 0.93936,-1.822228 1.79331,-2.270414 0.88142,-0.462612 2.07493,-0.606312 2.98013,-0.192162 z"
             sodipodi:nodetypes="sszzczss" /><path
             id="path2277-9-74-1-5-8-2"
             style="font-size:222.193px;fill:#4eb2e1;fill-opacity:1;stroke:#000000;stroke-width:0.167143;stroke-linecap:round;stroke-dasharray:none;stroke-opacity:1"
             inkscape:transform-center-x="-0.13679315"
             inkscape:transform-center-y="0.35009005"
             d="m 283.50941,-57.138038 c 0.84155,-0.385028 1.53568,-1.29849 1.67626,-2.213224 0.13772,-0.896275 -0.30347,-1.886442 -0.91542,-2.561741 -0.61197,-0.675275 -1.42583,-1.007867 -2.48409,-1.174096 -1.05826,-0.166226 -4.36537,-0.345717 -4.36537,-0.345717 0,0 0.89876,2.930001 1.31518,3.832202 0.41643,0.902191 0.93936,1.822228 1.79331,2.270415 0.88141,0.462611 2.07492,0.606311 2.98013,0.192161 z"
             sodipodi:nodetypes="sszzczss" /><ellipse
             style="font-size:222.193px;fill:none;fill-opacity:1;stroke:#00000e;stroke-width:0.417289;stroke-linecap:round;stroke-dasharray:none;stroke-opacity:1"
             id="path11255-4-0-5-9"
             cx="273.8895"
             cy="-74.479408"
             rx="0.20701431"
             ry="0.17251192" /><ellipse
             style="font-size:222.193px;fill:none;fill-opacity:1;stroke:#00000e;stroke-width:0.417289;stroke-linecap:round;stroke-dasharray:none;stroke-opacity:1"
             id="path11255-4-0-1-3-9"
             cx="282.41977"
             cy="-72.748741"
             rx="0.20701431"
             ry="0.17251192" /><path
             style="font-size:222.193px;fill:none;fill-opacity:1;stroke:#000000;stroke-width:0.069945;stroke-linecap:round;stroke-linejoin:round;stroke-dasharray:none;stroke-opacity:1"
             d="m 277.39788,-63.443291 c -0.2776,-0.231329 -1.24675,-1.314237 -2.59088,-2.359551 -1.21349,-0.94372 -2.56775,-1.526769 -2.56775,-1.526769"
             id="path32596-7-7"
             sodipodi:nodetypes="csc" /><path
             style="font-size:222.193px;fill:none;fill-opacity:1;stroke:#000000;stroke-width:0.069945;stroke-linecap:round;stroke-linejoin:round;stroke-dasharray:none;stroke-opacity:1"
             d="m 282.51025,-59.591669 c -0.2776,-0.231329 -1.24676,-1.314237 -2.59088,-2.359551 -1.21349,-0.94372 -2.56776,-1.526769 -2.56776,-1.526769"
             id="path32596-5-0-5"
             sodipodi:nodetypes="csc" /><path
             style="font-size:222.193px;fill:none;fill-opacity:1;stroke:#000000;stroke-width:0.069945;stroke-linecap:round;stroke-linejoin:round;stroke-dasharray:none;stroke-opacity:1"
             d="m 272.26239,-59.591669 c 0.27759,-0.231329 1.24675,-1.314237 2.59088,-2.359551 1.21349,-0.94372 2.56775,-1.526769 2.56775,-1.526769"
             id="path32596-0-7-0"
             sodipodi:nodetypes="csc" /><path
             style="font-size:222.193px;fill:none;fill-opacity:1;stroke:#000000;stroke-width:0.069945;stroke-linecap:round;stroke-linejoin:round;stroke-dasharray:none;stroke-opacity:1"
             d="m 282.57965,-67.32961 c -0.2776,0.231329 -1.24676,1.314237 -2.59089,2.359551 -1.21349,0.94372 -2.56775,1.526769 -2.56775,1.526769"
             id="path32596-4-8-9"
             sodipodi:nodetypes="csc" /><path
             style="font-size:222.193px;fill:none;fill-opacity:1;stroke:#000000;stroke-width:0.334285;stroke-linecap:round;stroke-linejoin:round;stroke-dasharray:none;stroke-opacity:1"
             d="m 277.41997,-63.507175 c -0.0929,-0.349212 -0.24114,-3.73252 -0.6343,-5.844515 -0.41725,-2.241356 -1.21078,-6.109604 -1.79668,-6.361694 -0.58669,-0.252433 -0.90174,1.046058 -0.90174,1.046058"
             id="path32596-9-4-7"
             sodipodi:nodetypes="cssc" /><path
             style="font-size:222.193px;fill:none;fill-opacity:1;stroke:#000000;stroke-width:0.334285;stroke-linecap:round;stroke-linejoin:round;stroke-dasharray:none;stroke-opacity:1"
             d="m 277.40489,-63.701478 c 0.1482,-0.329578 0.61421,-3.982271 1.24096,-6.037086 0.94948,-3.112855 3.18761,-4.951136 3.80656,-5.105152 0.61979,-0.154212 0.15992,2.045322 0.15992,2.045322"
             id="path32596-9-2-7-1"
             sodipodi:nodetypes="cssc" /></g></g><g
         transform="matrix(1.3070917e-5,-5.7713976e-7,-8.5228837e-7,-8.8512327e-6,-2.257296,-0.69654378)"
         fill="#000000"
         stroke="none"
         id="g46139"
         style="fill:#ffffff;fill-opacity:1"><path
           d="m 6100,12794 c -25,-2 -112,-8 -195,-14 C 4619,12686 3362,12181 2350,11351 589,9906 -269,7668 76,5420 346,3665 1351,2088 2836,1088 3887,380 5133,0 6400,0 c 1267,0 2513,380 3564,1088 1460,982 2456,2522 2746,4245 420,2491 -657,4980 -2765,6392 -890,596 -1891,948 -2985,1051 -153,14 -753,27 -860,18 z m 826,-539 c 735,-68 1408,-257 2052,-575 257,-127 431,-226 642,-364 1125,-741 1966,-1844 2377,-3116 339,-1050 372,-2206 93,-3275 -222,-851 -615,-1611 -1196,-2310 -144,-174 -544,-572 -724,-722 C 9227,1111 8143,662 6915,544 6666,520 6134,520 5885,544 4656,662 3573,1111 2630,1893 c -187,155 -582,551 -736,737 -377,454 -668,926 -897,1457 -489,1129 -605,2418 -325,3633 310,1349 1097,2553 2212,3388 805,603 1760,992 2751,1121 132,17 326,34 510,45 128,8 628,-4 781,-19 z"
           id="path46129"
           style="fill:#ffffff;fill-opacity:1" /><path
           d="m 6660,9688 v -253 l 213,-1 c 163,-1 243,-6 345,-23 584,-93 1084,-352 1484,-770 382,-398 619,-896 693,-1456 10,-70 17,-200 17,-313 l 2,-192 250,2 251,3 -1,205 c -1,289 -27,489 -99,765 -102,391 -282,755 -544,1100 -96,127 -384,418 -519,524 -467,368 -1024,592 -1621,651 -57,5 -186,10 -287,10 h -184 z"
           id="path46131"
           style="fill:#ffffff;fill-opacity:1" /><path
           d="m 6423,9014 -32,-5 -3,-248 -3,-249 220,-5 c 186,-4 239,-9 343,-31 586,-125 1070,-494 1332,-1015 145,-288 203,-533 204,-858 l 1,-193 h 254 253 l -5,223 c -5,246 -20,360 -72,563 -85,333 -250,660 -468,929 -87,107 -290,304 -405,393 -337,259 -751,428 -1182,482 -96,12 -388,21 -437,14 z"
           id="path46133"
           style="fill:#ffffff;fill-opacity:1" /><path
           d="m 3760,8754 c -131,-15 -227,-56 -365,-158 -331,-245 -595,-691 -755,-1274 -57,-209 -74,-335 -67,-517 19,-508 249,-1090 702,-1775 200,-303 525,-722 721,-930 89,-94 275,-258 489,-429 674,-541 1355,-918 1896,-1050 183,-44 324,-62 494,-62 169,0 258,13 456,67 673,182 1178,519 1374,918 40,80 47,104 56,196 10,87 9,124 -4,211 -54,362 -261,609 -681,813 -424,207 -751,249 -991,129 -97,-49 -153,-100 -254,-236 -170,-227 -308,-341 -501,-409 -88,-32 -264,-36 -370,-9 -102,25 -259,100 -355,169 -304,216 -939,853 -1179,1182 -58,80 -149,264 -171,345 -42,163 -26,326 48,480 75,154 182,271 384,419 50,37 111,89 135,115 232,258 190,717 -113,1251 -200,353 -473,536 -825,554 -49,2 -105,2 -124,0 z"
           id="path46135"
           style="fill:#ffffff;fill-opacity:1" /><path
           d="m 6070,7806 v -255 l 123,6 c 506,23 990,-262 1207,-711 95,-196 131,-354 131,-576 0,-82 -2,-154 -3,-162 -2,-10 45,-14 248,-16 l 251,-2 7,37 c 9,57 7,226 -4,331 -86,816 -713,1469 -1521,1587 -63,9 -175,15 -273,15 h -166 z"
           id="path46137"
           style="fill:#ffffff;fill-opacity:1" /></g><g
         style="opacity:1;fill:#ffffff;fill-opacity:1;fill-rule:nonzero;stroke:none;stroke-width:0;stroke-linecap:butt;stroke-linejoin:miter;stroke-miterlimit:10;stroke-dasharray:none"
         transform="matrix(0.00200265,-8.8426175e-5,1.3058329e-4,0.00135614,-2.2560022,-0.64106136)"
         id="g48343">
	<path
   d="M 75.546,78.738 H 14.455 C 6.484,78.738 0,72.254 0,64.283 V 25.716 C 0,17.746 6.485,11.261 14.455,11.261 h 61.091 c 7.97,0 14.454,6.485 14.454,14.455 v 38.567 c 0,7.971 -6.484,14.455 -14.454,14.455 z M 14.455,15.488 c -5.64,0 -10.228,4.588 -10.228,10.228 v 38.567 c 0,5.64 4.588,10.229 10.228,10.229 h 61.091 c 5.64,0 10.228,-4.589 10.228,-10.229 V 25.716 c 0,-5.64 -4.588,-10.228 -10.228,-10.228 H 14.455 Z"
   style="opacity:1;fill:#ffffff;fill-opacity:1;fill-rule:nonzero;stroke:none;stroke-width:1;stroke-linecap:butt;stroke-linejoin:miter;stroke-miterlimit:10;stroke-dasharray:none"
   stroke-linecap="round"
   id="path48333" />
	<path
   d="M 11.044,25.917 C 21.848,36.445 32.652,46.972 43.456,57.5 45.47,59.462 48.561,56.378 46.544,54.412 35.74,43.885 24.936,33.357 14.132,22.83 12.118,20.867 9.027,23.952 11.044,25.917 Z"
   style="opacity:1;fill:#ffffff;fill-opacity:1;fill-rule:nonzero;stroke:none;stroke-width:1;stroke-linecap:butt;stroke-linejoin:miter;stroke-miterlimit:10;stroke-dasharray:none"
   stroke-linecap="round"
   id="path48335" />
	<path
   d="M 46.544,57.5 C 57.348,46.973 68.152,36.445 78.956,25.918 80.972,23.953 77.883,20.867 75.868,22.83 65.064,33.357 54.26,43.885 43.456,54.412 c -2.016,1.965 1.073,5.051 3.088,3.088 z"
   style="opacity:1;fill:#ffffff;fill-opacity:1;fill-rule:nonzero;stroke:none;stroke-width:1;stroke-linecap:butt;stroke-linejoin:miter;stroke-miterlimit:10;stroke-dasharray:none"
   stroke-linecap="round"
   id="path48337" />
	<path
   d="M 78.837,64.952 C 71.648,58.134 64.458,51.317 57.269,44.499 c -2.039,-1.933 -5.132,1.149 -3.088,3.088 7.189,6.818 14.379,13.635 21.568,20.453 2.039,1.933 5.132,-1.15 3.088,-3.088 z"
   style="opacity:1;fill:#ffffff;fill-opacity:1;fill-rule:nonzero;stroke:none;stroke-width:1;stroke-linecap:butt;stroke-linejoin:miter;stroke-miterlimit:10;stroke-dasharray:none"
   stroke-linecap="round"
   id="path48339" />
	<path
   d="m 14.446,68.039 c 7.189,-6.818 14.379,-13.635 21.568,-20.453 2.043,-1.938 -1.048,-5.022 -3.088,-3.088 -7.189,6.818 -14.379,13.635 -21.568,20.453 -2.043,1.938 1.048,5.023 3.088,3.088 z"
   style="opacity:1;fill:#ffffff;fill-opacity:1;fill-rule:nonzero;stroke:none;stroke-width:1;stroke-linecap:butt;stroke-linejoin:miter;stroke-miterlimit:10;stroke-dasharray:none"
   stroke-linecap="round"
   id="path48341" />
</g></g></g></svg>
