<?xml version="1.0" encoding="UTF-8" standalone="no"?>
<!-- Created with Inkscape (http://www.inkscape.org/) -->

<svg
   width="80mm"
   height="50mm"
   viewBox="0 0 80 50"
   version="1.1"
   id="svg5"
   sodipodi:docname="intro2.svg"
   inkscape:version="1.2.2 (1:1.2.2+202212051550+b0a8486541)"
   xmlns:inkscape="http://www.inkscape.org/namespaces/inkscape"
   xmlns:sodipodi="http://sodipodi.sourceforge.net/DTD/sodipodi-0.dtd"
   xmlns="http://www.w3.org/2000/svg"
   xmlns:svg="http://www.w3.org/2000/svg"
   xmlns:rdf="http://www.w3.org/1999/02/22-rdf-syntax-ns#"
   xmlns:cc="http://creativecommons.org/ns#"
   xmlns:dc="http://purl.org/dc/elements/1.1/">
  <sodipodi:namedview
     id="namedview2806"
     pagecolor="#ffffff"
     bordercolor="#666666"
     borderopacity="1.0"
     inkscape:showpageshadow="2"
     inkscape:pageopacity="0.0"
     inkscape:pagecheckerboard="0"
     inkscape:deskcolor="#d1d1d1"
     inkscape:document-units="mm"
     showgrid="false"
     inkscape:zoom="2.7290017"
     inkscape:cx="162.1472"
     inkscape:cy="100.2198"
     inkscape:window-width="1920"
     inkscape:window-height="1016"
     inkscape:window-x="0"
     inkscape:window-y="27"
     inkscape:window-maximized="1"
     inkscape:current-layer="svg5" />
  <title
     id="title38028">logo cabinet Sophie</title>
  <defs
     id="defs2">
    <rect
       x="72.600777"
       y="121.46668"
       width="118.67434"
       height="111.6935"
       id="rect354" />
    <rect
       x="242.93336"
       y="212.21765"
       width="346.24985"
       height="192.6713"
       id="rect348" />
  </defs>
  <rect
     style="font-size:222.193px;fill:#ffeccd;fill-opacity:1;stroke-width:0.69235;paint-order:fill markers stroke"
     id="rect1049"
     width="88.117424"
     height="55.345856"
     x="-3.4080806"
     y="-3.405324" />
  <path
     style="font-size:222.193px;fill:#2c211a;fill-opacity:1;stroke:#2c211a;stroke-width:0.00924986;stroke-linecap:round;stroke-linejoin:round;stroke-dasharray:none;stroke-opacity:1"
     d="m 22.814149,25.23581 -0.113137,-0.110183 0.10702,0.05663 -0.06269,-0.128549 0.07492,0.06121 -0.02753,-0.110183 0.05351,0.04897 0.0014,-0.105592 0.04434,0.03978 0.01222,-0.122427 0.01833,0.09029 c 0,0 0.03211,-0.120896 0.03364,-0.114776 0.0014,0.0061 0.01376,0.0857 0.01376,0.0857 l 0.04586,-0.09947 -0.0045,0.06581 0.03211,-0.07345 0.0092,0.05356 0.02904,-0.08417 0.0076,0.07345 0.04713,-0.09004 -0.0089,0.0778 0.03363,-0.05509 0.0092,0.05663 0.07186,-0.08111 -0.02293,0.06734 0.07033,-0.07345 v 0.06733 l 0.04128,-0.06733 0.0014,0.08111 0.07338,-0.06733 -0.01833,0.07345 0.07644,-0.0551 -0.02447,0.07498 0.08867,-0.05663 -0.04434,0.07193 0.08103,-0.01224 -0.04434,0.04132 0.12078,0.003 -0.08714,0.02754 0.102434,0.02142 -0.07338,0.01837 -0.01987,0.02448 z"
     id="path21943-0" />
  <ellipse
     style="font-size:222.193px;fill:#d38d5f;fill-opacity:1;stroke:#00000e;stroke-width:0.021401;stroke-linecap:round;stroke-dasharray:none;stroke-opacity:1"
     id="path16055-7"
     cx="13.227934"
     cy="31.907015"
     rx="0.049527992"
     ry="0.033632476"
     transform="matrix(0.93481897,-0.35512463,0.35452809,0.93504537,0,0)" />
  <ellipse
     style="font-size:222.193px;fill:#d38d5f;fill-opacity:1;stroke:#00000e;stroke-width:0.021401;stroke-linecap:round;stroke-dasharray:none;stroke-opacity:1"
     id="path16055-5-4"
     cx="21.568497"
     cy="26.405441"
     rx="0.049522102"
     ry="0.033636469"
     transform="matrix(0.99885627,-0.04781374,0.04772207,0.99886065,0,0)" />
  <path
     style="font-size:222.193px;fill:none;fill-opacity:1;stroke:#000000;stroke-width:0.0924986;stroke-linecap:round;stroke-dasharray:none;stroke-opacity:1"
     d="m 23.366352,25.951024 c 0,0 -0.443019,0.0013 -0.640627,-0.150257 -0.173532,-0.133037 -0.390373,-0.287391 -0.390373,-0.287391"
     id="path2139-4" />
  <path
     style="font-size:222.193px;fill:none;fill-opacity:1;stroke:#000000;stroke-width:0.0924986;stroke-linecap:round;stroke-dasharray:none;stroke-opacity:1"
     d="m 23.363897,26.685233 c 0,0 0.310996,0.525047 0.415637,0.768524 0.0386,0.0898 0.05181,0.25183 0.05632,0.354349 0.0023,0.0553 0.167456,0.14225 0.167456,0.14225"
     id="path2115-4" />
  <path
     style="font-size:222.193px;fill:none;fill-opacity:1;stroke:#000000;stroke-width:0.0924986;stroke-linecap:round;stroke-dasharray:none;stroke-opacity:1"
     d="m 23.937671,26.55663 c 0,0 0.517095,0.323542 0.721721,0.491762 0.06652,0.05468 0.165709,0.235598 0.217438,0.322713 0.03862,0.06505 0.23567,-9.86e-4 0.23567,-9.86e-4"
     id="path2115-3-79" />
  <path
     style="font-size:222.193px;fill:none;fill-opacity:1;stroke:#000000;stroke-width:0.0924986;stroke-linecap:round;stroke-dasharray:none;stroke-opacity:1"
     d="m 23.552728,25.897357 c 0,0 0.297299,-0.115721 0.44495,-0.257258 0.23587,-0.226099 0.397477,-0.598643 0.397477,-0.598643"
     id="path2141-2" />
  <path
     id="path6844-6"
     style="font-size:222.193px;fill:#ff7f2a;fill-opacity:1;stroke:#000000;stroke-width:0.0369995;stroke-linecap:round;stroke-dasharray:none;stroke-opacity:1"
     d="m 24.336898,26.637598 -1.088553,0.416251 c 0,0 -0.06631,-0.378619 -0.06653,-0.575603 -5.71e-4,-0.282935 0.091,-0.856791 0.091,-0.856791 l 0.134537,-0.03673 c 0,0 0.305336,0.356338 0.46092,0.532697 0.155581,0.176358 0.468635,0.520174 0.468635,0.520174 z" />
  <path
     style="font-size:222.193px;fill:none;fill-opacity:1;stroke:#000000;stroke-width:0.388631;stroke-linecap:round;stroke-dasharray:none;stroke-opacity:1"
     d="m 22.651661,27.198187 2.253357,-0.733948"
     id="path2151-2" />
  <path
     style="font-size:222.193px;fill:none;fill-opacity:1;stroke:#000000;stroke-width:0.172725;stroke-linecap:round;stroke-dasharray:none;stroke-opacity:1"
     d="m 20.94167,23.293935 c 0,0 0.630806,0.612451 1.099986,1.396836 0.762524,1.274813 0.83602,2.367075 0.83602,2.367075"
     id="path2174-3" />
  <path
     style="font-size:222.193px;fill:none;fill-opacity:1;stroke:#000000;stroke-width:0.172725;stroke-linecap:round;stroke-dasharray:none;stroke-opacity:1"
     d="m 24.634089,26.52807 c -0.08008,-0.142688 0.0038,-1.269916 -1.009752,-2.355083 -1.013551,-1.085169 -1.467923,-1.084584 -1.467923,-1.084584"
     id="path2198-3" />
  <path
     style="font-size:222.193px;fill:none;fill-opacity:1;stroke:#000000;stroke-width:0.0452493;stroke-linecap:round;stroke-dasharray:none;stroke-opacity:1"
     d="m 13.828791,29.17073 c 0,0 0.24262,0.223852 0.286817,0.541897 0.04814,0.346391 -0.06988,0.764068 -0.06988,0.764068"
     id="path2334-84" />
  <path
     style="font-size:222.193px;fill:none;fill-opacity:1;stroke:#000000;stroke-width:0.0452493;stroke-linecap:round;stroke-dasharray:none;stroke-opacity:1"
     d="m 15.549637,29.30292 c 0,0 0.112095,0.310638 0.0048,0.613231 -0.116928,0.329558 -0.41413,0.645646 -0.41413,0.645646"
     id="path2334-3-0" />
  <path
     style="font-size:222.193px;fill:none;fill-opacity:1;stroke:#000000;stroke-width:0.0452493;stroke-linecap:round;stroke-dasharray:none;stroke-opacity:1"
     d="m 17.557232,29.281935 c 0,0 0.121885,0.30692 0.02416,0.612772 -0.10642,0.333106 -0.393449,0.658475 -0.393449,0.658475"
     id="path2334-38-5" />
  <path
     style="font-size:222.193px;fill:none;fill-opacity:1;stroke:#000000;stroke-width:0.0452493;stroke-linecap:round;stroke-dasharray:none;stroke-opacity:1"
     d="m 18.885718,29.395668 c 0,0 0.03205,0.328717 -0.146586,0.595437 -0.194556,0.290486 -0.560486,0.523393 -0.560486,0.523393"
     id="path2334-5-5" />
  <path
     style="font-size:222.193px;fill:none;fill-opacity:1;stroke:#000000;stroke-width:0.0452493;stroke-linecap:round;stroke-dasharray:none;stroke-opacity:1"
     d="m 21.205016,29.282132 c 0,0 -0.0048,0.315617 0.11469,0.613635 0.130102,0.324575 0.410217,0.601534 0.410217,0.601534"
     id="path2334-2-0" />
  <path
     style="font-size:222.193px;fill:none;fill-opacity:1;stroke:#000000;stroke-width:0.0452493;stroke-linecap:round;stroke-dasharray:none;stroke-opacity:1"
     d="m 22.407874,29.324577 c 0,0 0.01787,0.373084 0.215516,0.626016 0.215252,0.275472 0.626694,0.394771 0.626694,0.394771"
     id="path2334-4-3" />
  <path
     style="font-size:222.193px;fill:none;fill-opacity:1;stroke:#000000;stroke-width:0.0452493;stroke-linecap:round;stroke-dasharray:none;stroke-opacity:1"
     d="m 20.141019,29.244998 c 0,0 0.09294,0.358192 0.137132,0.67624 0.04814,0.346389 0.07981,0.629726 0.07981,0.629726"
     id="path2334-8-8" />
  <path
     style="font-size:222.193px;fill:none;fill-opacity:1;stroke:#000000;stroke-width:0.0452493;stroke-linecap:round;stroke-dasharray:none;stroke-opacity:1"
     d="m 23.539511,29.132255 c 0,0 0.06105,0.453078 0.298069,0.669473 0.257247,0.234865 0.543927,0.456016 0.543927,0.456016"
     id="path2334-59-7" />
  <path
     id="path2277-55-8"
     style="font-size:222.193px;fill:#ff000d;stroke:#000000;stroke-width:0.0150832;stroke-linecap:round;stroke-dasharray:none;stroke-opacity:1"
     d="m 14.067516,29.227898 c -0.08716,0.08698 -0.233271,0.130931 -0.35376,0.105815 -0.118056,-0.02461 -0.272129,-0.167108 -0.327742,-0.274894 -0.05561,-0.107783 -0.281529,-0.324455 -0.252941,-0.464151 0.02858,-0.139695 0.645576,0.269824 0.645576,0.269824 0,0 0.187175,-0.650264 0.280158,-0.556281 0.09298,0.09398 0.107523,0.411795 0.123579,0.539161 0.01656,0.131465 -0.02113,0.286974 -0.11487,0.380526 z" />
  <path
     id="path2277-55-9-2"
     style="font-size:222.193px;fill:#ff000d;stroke:#000000;stroke-width:0.0150832;stroke-linecap:round;stroke-dasharray:none;stroke-opacity:1"
     d="m 15.726196,29.582052 c -0.09218,0.08162 -0.240649,0.116786 -0.359428,0.08453 -0.116385,-0.03161 -0.261695,-0.183038 -0.310795,-0.293949 -0.0491,-0.110907 -0.261716,-0.340667 -0.224868,-0.478409 0.03685,-0.137742 0.628373,0.307841 0.628373,0.307841 0,0 0.225542,-0.637948 0.312766,-0.538587 0.08722,0.09936 0.08282,0.417476 0.09127,0.545573 0.0087,0.13222 -0.03816,0.285205 -0.137315,0.373001 z" />
  <path
     id="path2277-55-9-7-8"
     style="font-size:222.193px;fill:#ff000d;stroke:#000000;stroke-width:0.0150832;stroke-linecap:round;stroke-dasharray:none;stroke-opacity:1"
     d="m 17.807983,29.653525 c -0.113467,0.04771 -0.265361,0.03335 -0.367525,-0.03534 -0.100107,-0.06731 -0.189216,-0.257389 -0.200178,-0.378202 -0.01097,-0.120812 -0.138723,-0.406695 -0.05968,-0.525328 0.07904,-0.118635 0.49652,0.493325 0.49652,0.493325 0,0 0.418059,-0.531822 0.468832,-0.409709 0.05077,0.122116 -0.05533,0.422011 -0.08839,0.546049 -0.03411,0.128032 -0.127538,0.257882 -0.249583,0.309204 z" />
  <path
     id="path2277-55-9-7-0-8"
     style="font-size:222.193px;fill:#ff000d;stroke:#000000;stroke-width:0.0150832;stroke-linecap:round;stroke-dasharray:none;stroke-opacity:1"
     d="m 21.428202,29.505334 c -0.106246,0.06218 -0.258709,0.06785 -0.368981,0.01316 -0.108054,-0.0536 -0.221271,-0.230363 -0.247945,-0.348697 -0.02666,-0.118334 -0.190749,-0.385004 -0.127913,-0.512978 0.06283,-0.127976 0.5568,0.423973 0.5568,0.423973 0,0 0.344859,-0.582054 0.411179,-0.467648 0.06632,0.114406 5.72e-4,0.425628 -0.01616,0.552934 -0.01705,0.131401 -0.09269,0.272381 -0.206974,0.339263 z" />
  <path
     id="path2277-55-9-7-2-8"
     style="font-size:222.193px;fill:#ff000d;stroke:#000000;stroke-width:0.0150832;stroke-linecap:round;stroke-dasharray:none;stroke-opacity:1"
     d="m 23.725652,29.251551 c -0.108517,0.05811 -0.261088,0.05801 -0.369213,-7.43e-4 -0.105946,-0.05765 -0.212402,-0.238576 -0.23459,-0.357835 -0.02219,-0.11926 -0.176059,-0.391951 -0.108436,-0.517453 0.06763,-0.125506 0.54038,0.44475 0.54038,0.44475 0,0 0.366606,-0.56858 0.428558,-0.451746 0.06195,0.116835 -0.01571,0.425338 -0.03705,0.551926 -0.02202,0.130661 -0.102924,0.268677 -0.219649,0.331184 z" />
  <path
     id="path2277-55-1-2"
     style="font-size:222.193px;fill:#ff000d;stroke:#000000;stroke-width:0.0150832;stroke-linecap:round;stroke-dasharray:none;stroke-opacity:1"
     d="m 19.071365,29.562916 c -0.09833,0.07408 -0.249121,0.09739 -0.364978,0.05584 -0.113522,-0.04071 -0.227889,-0.185337 -0.291346,-0.300507 -0.06346,-0.115169 -0.229282,-0.377403 -0.181678,-0.5118 0.04761,-0.134399 0.524973,0.168246 0.524973,0.168246 0,0 0.352329,-0.429787 0.431437,-0.323839 0.07911,0.105948 0.04961,0.422721 0.04792,0.551087 -0.0017,0.132495 -0.06056,0.281293 -0.166328,0.360973 z" />
  <path
     id="path2277-55-1-00-9"
     style="font-size:222.193px;fill:#ff000d;stroke:#000000;stroke-width:0.0150832;stroke-linecap:round;stroke-dasharray:none;stroke-opacity:1"
     d="m 20.304866,29.410744 c -0.106244,0.06218 -0.25871,0.06786 -0.368985,0.01316 -0.108048,-0.05359 -0.204914,-0.210508 -0.254614,-0.332258 -0.04971,-0.121751 -0.184077,-0.401443 -0.121243,-0.529419 0.06283,-0.127974 0.501974,0.22797 0.501974,0.22797 0,0 0.399685,-0.386051 0.466002,-0.271645 0.06632,0.114405 5.71e-4,0.425628 -0.01616,0.552933 -0.01705,0.1314 -0.0927,0.272381 -0.206973,0.339265 z" />
  <path
     id="path2277-55-1-0-5"
     style="font-size:222.193px;fill:#ff000d;stroke:#000000;stroke-width:0.0150832;stroke-linecap:round;stroke-dasharray:none;stroke-opacity:1"
     d="m 22.609633,29.317521 c -0.106243,0.06218 -0.258712,0.06786 -0.368984,0.01316 -0.108048,-0.0536 -0.204912,-0.210507 -0.254617,-0.332258 -0.04971,-0.121749 -0.184074,-0.401442 -0.12124,-0.529416 0.06283,-0.127977 0.501971,0.227968 0.501971,0.227968 0,0 0.399688,-0.38605 0.466004,-0.271646 0.06632,0.114405 5.72e-4,0.425628 -0.01616,0.552933 -0.01705,0.131401 -0.09269,0.272382 -0.206974,0.339264 z" />
  <path
     style="font-size:222.193px;fill:none;stroke:#000000;stroke-width:0.259085;stroke-linecap:round;stroke-dasharray:none;stroke-opacity:1"
     d="m 12.853252,20.844159 c 0,0 -1.596929,0.583091 -1.050595,1.760299 0.249292,0.537164 0.761236,1.164286 5.184465,1.051608 5.80441,-0.147864 8.861553,-1.920327 8.861553,-1.920327"
     id="path1262-7" />
  <path
     style="font-size:222.193px;fill:none;stroke:#000000;stroke-width:0.431813;stroke-linecap:round;stroke-dasharray:none;stroke-opacity:1"
     d="m 17.740809,20.684132 c 0,0 0.148208,0.774512 0.137033,1.280217 -0.106224,4.806916 -1.774732,8.46397 -1.774732,8.46397"
     id="path1264-0" />
  <ellipse
     style="font-size:222.193px;fill:#d38d5f;fill-opacity:1;stroke:#000000;stroke-width:0.0428886;stroke-linecap:round;stroke-dasharray:none;stroke-opacity:1"
     id="path2057-9"
     cx="-6.0932107"
     cy="34.329487"
     rx="0.39149341"
     ry="0.38778275"
     transform="matrix(0.67350747,-0.73918041,0.79664707,0.60444474,0,0)" />
  <ellipse
     style="font-size:222.193px;fill:none;fill-opacity:1;stroke:#00000e;stroke-width:0.0428024;stroke-linecap:round;stroke-dasharray:none;stroke-opacity:1"
     id="path11255-7"
     cx="23.101028"
     cy="25.248484"
     rx="0.021223711"
     ry="0.017703442" />
  <ellipse
     style="font-size:222.193px;fill:none;fill-opacity:1;stroke:#00000e;stroke-width:0.0428024;stroke-linecap:round;stroke-dasharray:none;stroke-opacity:1"
     id="path11255-4-4"
     cx="23.3606"
     cy="25.175106"
     rx="0.021223711"
     ry="0.017703442" />
  <path
     style="font-size:222.193px;fill:none;fill-opacity:1;stroke:#00000e;stroke-width:0.021401;stroke-linecap:round;stroke-dasharray:none;stroke-opacity:1"
     d="m 23.189523,25.450305 c 0.120272,-0.01062 0.158379,-0.01843 0.215776,-0.06727 0.01404,-0.01196 0.02475,-0.04957 0.02475,-0.04957"
     id="path16053-4" />
  <ellipse
     style="font-size:222.193px;fill:#ffe1cd;fill-opacity:1;stroke:#00000e;stroke-width:0.021401;stroke-linecap:round;stroke-dasharray:none;stroke-opacity:1"
     id="path16055-6-4"
     cx="-20.399261"
     cy="-20.495489"
     rx="0.049525987"
     ry="0.033633836"
     transform="matrix(-0.95713498,-0.28964225,0.28913226,-0.95728916,0,0)" />
  <ellipse
     style="font-size:222.193px;fill:#ffe1cd;fill-opacity:1;stroke:#00000e;stroke-width:0.021401;stroke-linecap:round;stroke-dasharray:none;stroke-opacity:1"
     id="path16055-5-7-2"
     cx="-26.628433"
     cy="-12.995296"
     rx="0.049537562"
     ry="0.033625975"
     transform="matrix(-0.82023187,-0.57203119,0.57129099,-0.82074759,0,0)" />
  <path
     style="font-size:222.193px;fill:none;fill-opacity:1;stroke:#000000;stroke-width:0.0924986;stroke-linecap:round;stroke-dasharray:none;stroke-opacity:1"
     d="m 14.341869,25.073804 c 0,0 0.278348,0.269605 0.34255,0.510327 0.05638,0.211387 0.109613,0.637517 0.109613,0.637517"
     id="path2139-3-4" />
  <path
     style="font-size:222.193px;fill:none;fill-opacity:1;stroke:#000000;stroke-width:0.0924986;stroke-linecap:round;stroke-dasharray:none;stroke-opacity:1"
     d="m 14.791399,24.493628 c 0,0 0.09963,-0.848315 0.16516,-1.105121 0.02416,-0.09472 0.42383,0.643195 0.456802,0.637128 0.05438,-0.01 0.135668,-0.111098 0.135668,-0.111098"
     id="path2115-0-6" />
  <path
     style="font-size:222.193px;fill:none;fill-opacity:1;stroke:#000000;stroke-width:0.0924986;stroke-linecap:round;stroke-dasharray:none;stroke-opacity:1"
     d="m 14.258428,24.245058 c 0,0 -0.05675,-0.624102 -0.176861,-0.873701 -0.03735,-0.07762 -0.236301,0.573499 -0.28688,0.546468 -0.06668,-0.03564 -0.187294,-0.143182 -0.187294,-0.143182"
     id="path2115-3-7-2" />
  <path
     style="font-size:222.193px;fill:none;fill-opacity:1;stroke:#000000;stroke-width:0.0924986;stroke-linecap:round;stroke-dasharray:none;stroke-opacity:1"
     d="m 14.0081,24.879382 c 0,0 -0.348712,0.0068 -0.490064,0.154656 -0.279205,0.292007 -0.431991,0.792055 -0.431991,0.792055"
     id="path2141-3-1" />
  <path
     id="path6844-9-6"
     style="font-size:222.193px;fill:#ffd42a;fill-opacity:1;stroke:#000000;stroke-width:0.0369995;stroke-linecap:round;stroke-dasharray:none;stroke-opacity:1"
     d="m 13.991504,23.93707 1.116156,0.3351 c 0,0 -0.178278,0.340465 -0.298184,0.496659 -0.172235,0.224347 -0.594403,0.623211 -0.594403,0.623211 l -0.12898,-0.05308 c 0,0 -0.11712,-0.509166 -0.132867,-0.743915 -0.01576,-0.234748 0.03828,-0.657976 0.03828,-0.657976 z" />
  <ellipse
     style="font-size:222.193px;fill:#ffe1cd;fill-opacity:1;stroke:#000000;stroke-width:0.0428897;stroke-linecap:round;stroke-dasharray:none;stroke-opacity:1"
     id="path2057-6-6"
     cx="-6.8030019"
     cy="-27.863319"
     rx="0.39129934"
     ry="0.38799387"
     transform="matrix(-0.9846875,0.17432877,-0.26251929,-0.96492674,0,0)" />
  <ellipse
     style="font-size:222.193px;fill:none;fill-opacity:1;stroke:#00000e;stroke-width:0.0428024;stroke-linecap:round;stroke-dasharray:none;stroke-opacity:1"
     id="path11255-8-3"
     cx="-26.922562"
     cy="-11.803096"
     rx="0.021231316"
     ry="0.017697109"
     transform="matrix(-0.79196239,-0.61056988,0.60983324,-0.79252976,0,0)" />
  <ellipse
     style="font-size:222.193px;fill:none;fill-opacity:1;stroke:#00000e;stroke-width:0.0428024;stroke-linecap:round;stroke-dasharray:none;stroke-opacity:1"
     id="path11255-4-9-3"
     cx="-26.662895"
     cy="-11.876449"
     rx="0.021231316"
     ry="0.017697109"
     transform="matrix(-0.79196239,-0.61056988,0.60983324,-0.79252976,0,0)" />
  <path
     style="font-size:222.193px;fill:none;fill-opacity:1;stroke:#00000e;stroke-width:0.021401;stroke-linecap:round;stroke-dasharray:none;stroke-opacity:1"
     d="M 14.176715,25.5785 C 14.074957,25.51345 14.040002,25.49637 13.964758,25.5 c -0.01845,9.1e-4 -0.04984,0.02415 -0.04984,0.02415"
     id="path16053-0-5" />
  <path
     style="font-size:222.193px;fill:#552200;fill-opacity:1;stroke:none;stroke-width:0.00924986;stroke-linecap:round;stroke-linejoin:round;stroke-dasharray:none;stroke-opacity:1"
     d="m 13.616121,25.56457 c 0.04446,-0.0021 0.10071,0.09928 0.170651,0.237189 0.06994,0.137907 0.159587,0.191305 0.159587,0.191305 0,0 0.100347,-0.03283 0.152125,-0.04223 0.0818,-0.01486 0.248436,-0.02204 0.248436,-0.02204 0,0 0.05365,0.06674 0.0581,0.107124 0.03461,0.31398 0,1.019203 0,1.019203 0,0 -0.08951,0.04382 -0.100907,-0.01224 -0.109304,-0.537617 0.0153,-1.022264 0.0153,-1.022264 0,0 -0.305382,0.142327 -0.447174,0.0878 -0.06956,-0.02675 -0.14973,-0.106202 -0.201329,-0.189551 -0.0578,-0.09337 -0.08304,-0.189973 -0.08304,-0.189973 -0.02613,0.06755 0.0035,0.69514 -0.02679,1.280322 -0.0033,0.06422 -0.150233,0.07043 -0.14983,0.0061 0.0042,-0.679215 0.03033,-0.866787 0.128426,-1.389545 0.006,-0.0321 0.04384,-0.05968 0.07645,-0.06121 z"
     id="path26518-6" />
  <path
     style="font-size:222.193px;fill:none;fill-opacity:1;stroke:#397ec4;stroke-width:0.0369995;stroke-linecap:round;stroke-linejoin:round;stroke-dasharray:none;stroke-opacity:1"
     d="m 13.53278,25.646524 0.06271,0.09739"
     id="path27300-8" />
  <path
     style="font-size:222.193px;fill:none;fill-opacity:1;stroke:#397ec4;stroke-width:0.0369995;stroke-linecap:round;stroke-linejoin:round;stroke-dasharray:none;stroke-opacity:1"
     d="m 14.294254,26.038332 0.08137,-0.0824"
     id="path27300-1-5" />
  <g
     id="g36520"
     transform="matrix(0.08274459,0.0735017,-0.07343105,0.0828242,-6.8013769,6.302557)"
     style="font-size:222.193px;stroke-width:3.33288">
    <path
       id="path2277-9-74-1-4-6"
       style="font-size:222.193px;fill:#e79b53;fill-opacity:1;stroke:#000000;stroke-width:0.167143;stroke-linecap:round;stroke-dasharray:none;stroke-opacity:1"
       d="m 271.3499,-57.15748 c -0.84156,-0.385029 -1.53569,-1.29849 -1.67626,-2.213224 -0.13773,-0.896275 0.30347,-1.886442 0.91541,-2.561742 0.61197,-0.675275 1.42584,-1.007866 2.48409,-1.174095 1.05826,-0.166226 4.36537,-0.345718 4.36537,-0.345718 0,0 -0.89876,2.930001 -1.31517,3.832203 -0.41644,0.90219 -0.93936,1.822228 -1.79332,2.270414 -0.88141,0.462612 -2.07492,0.606312 -2.98012,0.192162 z" />
    <path
       id="path2277-9-74-1-54-0-6"
       style="font-size:222.193px;fill:#68d256;fill-opacity:1;stroke:#000000;stroke-width:0.167143;stroke-linecap:round;stroke-dasharray:none;stroke-opacity:1"
       d="m 271.41293,-69.744381 c -0.84156,0.385028 -1.53568,1.29849 -1.67626,2.213224 -0.13773,0.896275 0.30347,1.886442 0.91541,2.561741 0.61197,0.675275 1.42584,1.007867 2.48409,1.174096 1.05827,0.166226 4.36538,0.345717 4.36538,0.345717 0,0 -0.89876,-2.930001 -1.31518,-3.832202 -0.41644,-0.902191 -0.93936,-1.822228 -1.79331,-2.270415 -0.88141,-0.462611 -2.07493,-0.606311 -2.98013,-0.192161 z" />
    <path
       id="path2277-9-74-1-54-6-9-9"
       style="font-size:222.193px;fill:#e45344;fill-opacity:1;stroke:#000000;stroke-width:0.167143;stroke-linecap:round;stroke-dasharray:none;stroke-opacity:1"
       d="m 283.46711,-69.698497 c 0.84156,0.385029 1.53568,1.298491 1.67626,2.213225 0.13773,0.896274 -0.30347,1.886441 -0.91541,2.561741 -0.61197,0.675275 -1.42584,1.007866 -2.48409,1.174096 -1.05826,0.166225 -4.36538,0.345717 -4.36538,0.345717 0,0 0.89876,-2.930001 1.31518,-3.832203 0.41644,-0.90219 0.93936,-1.822228 1.79331,-2.270414 0.88142,-0.462612 2.07493,-0.606312 2.98013,-0.192162 z" />
    <path
       id="path2277-9-74-1-5-8-2"
       style="font-size:222.193px;fill:#4eb2e1;fill-opacity:1;stroke:#000000;stroke-width:0.167143;stroke-linecap:round;stroke-dasharray:none;stroke-opacity:1"
       d="m 283.50941,-57.138038 c 0.84155,-0.385028 1.53568,-1.29849 1.67626,-2.213224 0.13772,-0.896275 -0.30347,-1.886442 -0.91542,-2.561741 -0.61197,-0.675275 -1.42583,-1.007867 -2.48409,-1.174096 -1.05826,-0.166226 -4.36537,-0.345717 -4.36537,-0.345717 0,0 0.89876,2.930001 1.31518,3.832202 0.41643,0.902191 0.93936,1.822228 1.79331,2.270415 0.88141,0.462611 2.07492,0.606311 2.98013,0.192161 z" />
    <ellipse
       style="font-size:222.193px;fill:none;fill-opacity:1;stroke:#00000e;stroke-width:0.417289;stroke-linecap:round;stroke-dasharray:none;stroke-opacity:1"
       id="path11255-4-0-5-9"
       cx="273.8895"
       cy="-74.479408"
       rx="0.20701431"
       ry="0.17251192" />
    <ellipse
       style="font-size:222.193px;fill:none;fill-opacity:1;stroke:#00000e;stroke-width:0.417289;stroke-linecap:round;stroke-dasharray:none;stroke-opacity:1"
       id="path11255-4-0-1-3-9"
       cx="282.41977"
       cy="-72.748741"
       rx="0.20701431"
       ry="0.17251192" />
    <path
       style="font-size:222.193px;fill:none;fill-opacity:1;stroke:#000000;stroke-width:0.069945;stroke-linecap:round;stroke-linejoin:round;stroke-dasharray:none;stroke-opacity:1"
       d="m 277.39788,-63.443291 c -0.2776,-0.231329 -1.24675,-1.314237 -2.59088,-2.359551 -1.21349,-0.94372 -2.56775,-1.526769 -2.56775,-1.526769"
       id="path32596-7-7" />
    <path
       style="font-size:222.193px;fill:none;fill-opacity:1;stroke:#000000;stroke-width:0.069945;stroke-linecap:round;stroke-linejoin:round;stroke-dasharray:none;stroke-opacity:1"
       d="m 282.51025,-59.591669 c -0.2776,-0.231329 -1.24676,-1.314237 -2.59088,-2.359551 -1.21349,-0.94372 -2.56776,-1.526769 -2.56776,-1.526769"
       id="path32596-5-0-5" />
    <path
       style="font-size:222.193px;fill:none;fill-opacity:1;stroke:#000000;stroke-width:0.069945;stroke-linecap:round;stroke-linejoin:round;stroke-dasharray:none;stroke-opacity:1"
       d="m 272.26239,-59.591669 c 0.27759,-0.231329 1.24675,-1.314237 2.59088,-2.359551 1.21349,-0.94372 2.56775,-1.526769 2.56775,-1.526769"
       id="path32596-0-7-0" />
    <path
       style="font-size:222.193px;fill:none;fill-opacity:1;stroke:#000000;stroke-width:0.069945;stroke-linecap:round;stroke-linejoin:round;stroke-dasharray:none;stroke-opacity:1"
       d="m 282.57965,-67.32961 c -0.2776,0.231329 -1.24676,1.314237 -2.59089,2.359551 -1.21349,0.94372 -2.56775,1.526769 -2.56775,1.526769"
       id="path32596-4-8-9" />
    <path
       style="font-size:222.193px;fill:none;fill-opacity:1;stroke:#000000;stroke-width:0.334285;stroke-linecap:round;stroke-linejoin:round;stroke-dasharray:none;stroke-opacity:1"
       d="m 277.41997,-63.507175 c -0.0929,-0.349212 -0.24114,-3.73252 -0.6343,-5.844515 -0.41725,-2.241356 -1.21078,-6.109604 -1.79668,-6.361694 -0.58669,-0.252433 -0.90174,1.046058 -0.90174,1.046058"
       id="path32596-9-4-7" />
    <path
       style="font-size:222.193px;fill:none;fill-opacity:1;stroke:#000000;stroke-width:0.334285;stroke-linecap:round;stroke-linejoin:round;stroke-dasharray:none;stroke-opacity:1"
       d="m 277.40489,-63.701478 c 0.1482,-0.329578 0.61421,-3.982271 1.24096,-6.037086 0.94948,-3.112855 3.18761,-4.951136 3.80656,-5.105152 0.61979,-0.154212 0.15992,2.045322 0.15992,2.045322"
       id="path32596-9-2-7-1" />
  </g>
  <text
     xml:space="preserve"
     transform="matrix(0.26458333,0,0,0.26458333,-105.85292,-22.238078)"
     id="text346"
     style="white-space:pre;shape-inside:url(#rect348);display:inline;fill:#000000" />
  <metadata
     id="metadata38022">
    <rdf:RDF>
      <cc:Work
         rdf:about="">
        <dc:title>logo cabinet Sophie</dc:title>
        <dc:creator>
          <cc:Agent>
            <dc:title>Mickaël Ribardière</dc:title>
          </cc:Agent>
        </dc:creator>
      </cc:Work>
    </rdf:RDF>
  </metadata>
</svg>
