<?xml version="1.0" encoding="UTF-8" standalone="no"?>
<!-- Created with Inkscape (http://www.inkscape.org/) -->

<svg
   width="80mm"
   height="80mm"
   viewBox="0 0 80 80"
   version="1.1"
   id="svg5"
   inkscape:version="1.1.2 (0a00cf5339, 2022-02-04)"
   sodipodi:docname="logo.svg"
   inkscape:export-filename="/home/mickael/Documents/Mickael/sophieribardiere.github.io/static/images/favicon.png"
   inkscape:export-xdpi="10.16"
   inkscape:export-ydpi="10.16"
   xmlns:inkscape="http://www.inkscape.org/namespaces/inkscape"
   xmlns:sodipodi="http://sodipodi.sourceforge.net/DTD/sodipodi-0.dtd"
   xmlns="http://www.w3.org/2000/svg"
   xmlns:svg="http://www.w3.org/2000/svg"
   xmlns:rdf="http://www.w3.org/1999/02/22-rdf-syntax-ns#"
   xmlns:cc="http://creativecommons.org/ns#"
   xmlns:dc="http://purl.org/dc/elements/1.1/">
  <title
     id="title38028">logo cabinet Sophie</title>
  <sodipodi:namedview
     id="namedview7"
     pagecolor="#ffffff"
     bordercolor="#000000"
     borderopacity="0.25"
     inkscape:showpageshadow="2"
     inkscape:pageopacity="0.0"
     inkscape:pagecheckerboard="0"
     inkscape:deskcolor="#d1d1d1"
     inkscape:document-units="mm"
     showgrid="false"
     inkscape:zoom="2"
     inkscape:cx="201.75"
     inkscape:cy="116.25"
     inkscape:window-width="1920"
     inkscape:window-height="1011"
     inkscape:window-x="0"
     inkscape:window-y="32"
     inkscape:window-maximized="1"
     inkscape:current-layer="text360"
     inkscape:pageshadow="2" />
  <defs
     id="defs2">
    <rect
       x="72.600777"
       y="121.46668"
       width="118.67434"
       height="111.6935"
       id="rect354" />
    <rect
       x="242.93336"
       y="212.21765"
       width="346.24985"
       height="192.6713"
       id="rect348" />
  </defs>
  <g
     inkscape:label="Calque 1"
     inkscape:groupmode="layer"
     id="layer1"
     transform="translate(-106.19398,-20.49642)">
    <g
       aria-label="ψ"
       id="text360"
       style="font-size:222.193px;stroke-width:3.33288">
      <path
         style="font-size:222.193px;fill:#2c211a;fill-opacity:1;stroke:#2c211a;stroke-width:0.05;stroke-linecap:round;stroke-linejoin:round;stroke-dasharray:none;stroke-opacity:1"
         d="m 168.64393,57.222315 -0.61185,-0.595311 0.57877,0.305925 -0.33899,-0.69453 0.40514,0.330727 -0.14883,-0.595312 0.28939,0.264578 0.008,-0.570507 0.23979,0.214958 0.0661,-0.661457 0.0992,0.487828 c 0,0 0.17364,-0.653189 0.1819,-0.620121 0.008,0.03308 0.0744,0.463021 0.0744,0.463021 l 0.24805,-0.537434 -0.0248,0.355535 0.17363,-0.396876 0.0496,0.28939 0.15709,-0.454752 0.0413,0.396874 0.2549,-0.486493 -0.0482,0.420347 0.1819,-0.297657 0.0496,0.305924 0.38861,-0.438214 -0.12403,0.363801 0.38035,-0.396865 1e-5,0.363806 0.22324,-0.363803 0.008,0.438214 0.39686,-0.363816 -0.0992,0.396873 0.41342,-0.297655 -0.1323,0.405143 0.47956,-0.305922 -0.23978,0.388605 0.43822,-0.06614 -0.23979,0.223236 0.65319,0.01654 -0.47128,0.14883 0.55397,0.115754 -0.39688,0.09922 -0.10748,0.132294 z"
         id="path21943-0"
         sodipodi:nodetypes="ccccccccccccccccccccccccccccccccccccccccccc" />
      <ellipse
         style="font-size:222.193px;fill:#d38d5f;fill-opacity:1;stroke:#00000e;stroke-width:0.115683;stroke-linecap:round;stroke-dasharray:none;stroke-opacity:1"
         id="path16055-7"
         cx="141.92236"
         cy="114.49593"
         rx="0.26781905"
         ry="0.18173437"
         transform="rotate(-20.782797)" />
      <ellipse
         style="font-size:222.193px;fill:#d38d5f;fill-opacity:1;stroke:#00000e;stroke-width:0.115683;stroke-linecap:round;stroke-dasharray:none;stroke-opacity:1"
         id="path16055-5-4"
         cx="165.63493"
         cy="65.794472"
         rx="0.26781905"
         ry="0.18173437"
         transform="rotate(-2.7379401)" />
      <path
         style="font-size:222.193px;fill:none;fill-opacity:1;stroke:#000000;stroke-width:0.5;stroke-linecap:round;stroke-dasharray:none;stroke-opacity:1"
         d="m 171.63029,61.086531 c 0,0 -2.39587,0.0067 -3.46456,-0.811823 -0.93846,-0.718779 -2.11116,-1.552739 -2.11116,-1.552739"
         id="path2139-4"
         sodipodi:nodetypes="csc" />
      <path
         style="font-size:222.193px;fill:none;fill-opacity:1;stroke:#000000;stroke-width:0.5;stroke-linecap:round;stroke-dasharray:none;stroke-opacity:1"
         d="m 171.61702,65.053377 c 0,0 1.68191,2.836773 2.24781,4.152248 0.20873,0.485188 0.28015,1.360608 0.30457,1.914506 0.0132,0.298759 0.90564,0.768559 0.90564,0.768559"
         id="path2115-4"
         sodipodi:nodetypes="cssc" />
      <path
         style="font-size:222.193px;fill:none;fill-opacity:1;stroke:#000000;stroke-width:0.5;stroke-linecap:round;stroke-dasharray:none;stroke-opacity:1"
         d="m 174.72004,64.358547 c 0,0 2.79649,1.748066 3.90313,2.656936 0.35973,0.295441 0.89615,1.272908 1.17592,1.743581 0.2089,0.351444 1.27452,-0.0052 1.27452,-0.0052"
         id="path2115-3-79"
         sodipodi:nodetypes="cssc" />
      <path
         style="font-size:222.193px;fill:none;fill-opacity:1;stroke:#000000;stroke-width:0.5;stroke-linecap:round;stroke-dasharray:none;stroke-opacity:1"
         d="m 172.63823,60.796578 c 0,0 1.60782,-0.62523 2.40634,-1.389936 1.27559,-1.221588 2.14958,-3.234402 2.14958,-3.234402"
         id="path2141-2"
         sodipodi:nodetypes="csc" />
      <path
         id="path6844-6"
         style="font-size:222.193px;fill:#ff7f2a;fill-opacity:1;stroke:#000000;stroke-width:0.2;stroke-linecap:round;stroke-dasharray:none;stroke-opacity:1"
         inkscape:transform-center-x="1.01e-06"
         d="m 176.87908,64.796013 -5.88698,2.248955 c 0,0 -0.35862,-2.045637 -0.35983,-3.109914 -0.002,-1.528673 0.49213,-4.629144 0.49213,-4.629144 l 0.7276,-0.198439 c 0,0 1.65127,1.925255 2.49268,2.878101 0.8414,0.952844 2.5344,2.81044 2.5344,2.810441 z"
         sodipodi:nodetypes="ccscczcc" />
      <path
         style="font-size:222.193px;fill:none;fill-opacity:1;stroke:#000000;stroke-width:2.10074;stroke-linecap:round;stroke-dasharray:none;stroke-opacity:1"
         d="m 167.76518,67.824813 12.18635,-3.965437"
         id="path2151-2"
         sodipodi:nodetypes="cc" />
      <path
         style="font-size:222.193px;fill:none;fill-opacity:1;stroke:#000000;stroke-width:0.933663;stroke-linecap:round;stroke-dasharray:none;stroke-opacity:1"
         d="m 158.51742,46.730587 c 0,0 3.41144,3.308999 5.9488,7.546943 4.12381,6.887663 4.52128,12.789032 4.52128,12.789032"
         id="path2174-3"
         sodipodi:nodetypes="csc" />
      <path
         style="font-size:222.193px;fill:none;fill-opacity:1;stroke:#000000;stroke-width:0.933663;stroke-linecap:round;stroke-dasharray:none;stroke-opacity:1"
         d="m 178.48633,64.204241 c -0.43307,-0.770922 0.0205,-6.861203 -5.46083,-12.724238 -5.48136,-5.863042 -7.93864,-5.859881 -7.93864,-5.859881"
         id="path2198-3"
         sodipodi:nodetypes="czc" />
      <path
         style="font-size:222.193px;fill:none;fill-opacity:1;stroke:#000000;stroke-width:0.244595;stroke-linecap:round;stroke-dasharray:none;stroke-opacity:1"
         d="m 120.05039,78.48223 c 0,0 1.31209,1.209445 1.55111,2.927812 0.26033,1.871508 -0.3779,4.128168 -0.3779,4.128168"
         id="path2334-84"
         sodipodi:nodetypes="csc" />
      <path
         style="font-size:222.193px;fill:none;fill-opacity:1;stroke:#000000;stroke-width:0.244595;stroke-linecap:round;stroke-dasharray:none;stroke-opacity:1"
         d="m 129.35685,79.19644 c 0,0 0.60622,1.67834 0.0256,3.313216 -0.63237,1.780563 -2.23964,3.488351 -2.23964,3.488351"
         id="path2334-3-0"
         sodipodi:nodetypes="csc" />
      <path
         style="font-size:222.193px;fill:none;fill-opacity:1;stroke:#000000;stroke-width:0.244595;stroke-linecap:round;stroke-dasharray:none;stroke-opacity:1"
         d="m 140.21409,79.083059 c 0,0 0.65916,1.658256 0.13071,3.310737 -0.57554,1.799732 -2.12781,3.557665 -2.12781,3.557665"
         id="path2334-38-5"
         sodipodi:nodetypes="csc" />
      <path
         style="font-size:222.193px;fill:none;fill-opacity:1;stroke:#000000;stroke-width:0.244595;stroke-linecap:round;stroke-dasharray:none;stroke-opacity:1"
         d="m 147.39866,79.697542 c 0,0 0.17334,1.776024 -0.79275,3.217083 -1.05217,1.56946 -3.03115,2.827835 -3.03115,2.827835"
         id="path2334-5-5"
         sodipodi:nodetypes="csc" />
      <path
         style="font-size:222.193px;fill:none;fill-opacity:1;stroke:#000000;stroke-width:0.244595;stroke-linecap:round;stroke-dasharray:none;stroke-opacity:1"
         d="m 159.94162,79.084122 c 0,0 -0.0258,1.705243 0.62026,3.315399 0.70358,1.753644 2.21849,3.250018 2.21849,3.250018"
         id="path2334-2-0"
         sodipodi:nodetypes="csc" />
      <path
         style="font-size:222.193px;fill:none;fill-opacity:1;stroke:#000000;stroke-width:0.244595;stroke-linecap:round;stroke-dasharray:none;stroke-opacity:1"
         d="m 166.44676,79.313447 c 0,0 0.0967,2.015732 1.16554,3.382297 1.16409,1.488342 3.38921,2.1329 3.38921,2.1329"
         id="path2334-4-3"
         sodipodi:nodetypes="csc" />
      <path
         style="font-size:222.193px;fill:none;fill-opacity:1;stroke:#000000;stroke-width:0.244595;stroke-linecap:round;stroke-dasharray:none;stroke-opacity:1"
         d="m 154.18744,78.883493 c 0,0 0.5026,1.935272 0.74162,3.65365 0.26032,1.871499 0.43159,3.402333 0.43159,3.402333"
         id="path2334-8-8"
         sodipodi:nodetypes="csc" />
      <path
         style="font-size:222.193px;fill:none;fill-opacity:1;stroke:#000000;stroke-width:0.244595;stroke-linecap:round;stroke-dasharray:none;stroke-opacity:1"
         d="m 172.56676,78.274355 c 0,0 0.33017,2.447927 1.61197,3.617087 1.39122,1.268946 2.9416,2.463799 2.9416,2.463799"
         id="path2334-59-7"
         sodipodi:nodetypes="csc" />
      <path
         id="path2277-55-8"
         style="font-size:222.193px;fill:#ff000d;stroke:#000000;stroke-width:0.0815321;stroke-linecap:round;stroke-dasharray:none;stroke-opacity:1"
         inkscape:transform-center-x="0.20117477"
         inkscape:transform-center-y="-0.43712039"
         d="m 121.34141,78.791104 c -0.47135,0.469926 -1.26155,0.707405 -1.91315,0.571704 -0.63847,-0.132971 -1.47169,-0.902866 -1.77245,-1.485218 -0.30076,-0.58234 -1.52253,-1.752991 -1.36794,-2.507755 0.15459,-0.754755 3.49133,1.457829 3.49133,1.457829 0,0 1.01226,-3.513301 1.51512,-3.005526 0.50286,0.507768 0.5815,2.224885 0.66832,2.913026 0.0896,0.710293 -0.11423,1.550485 -0.62123,2.05594 z"
         sodipodi:nodetypes="sszzczss" />
      <path
         id="path2277-55-9-2"
         style="font-size:222.193px;fill:#ff000d;stroke:#000000;stroke-width:0.0815321;stroke-linecap:round;stroke-dasharray:none;stroke-opacity:1"
         inkscape:transform-center-x="0.15523955"
         inkscape:transform-center-y="-0.36507482"
         d="m 130.31171,80.704557 c -0.49852,0.441005 -1.30146,0.630983 -1.94382,0.456702 -0.62941,-0.170768 -1.41528,-0.988931 -1.68081,-1.588167 -0.26553,-0.599223 -1.41539,-1.840587 -1.21611,-2.584793 0.19928,-0.744203 3.39828,1.663231 3.39828,1.663231 0,0 1.21976,-3.446756 1.69148,-2.909925 0.47171,0.536828 0.44792,2.255577 0.49358,2.947672 0.0471,0.71437 -0.20639,1.540926 -0.7426,2.01528 z"
         sodipodi:nodetypes="sszzczss" />
      <path
         id="path2277-55-9-7-8"
         style="font-size:222.193px;fill:#ff000d;stroke:#000000;stroke-width:0.0815321;stroke-linecap:round;stroke-dasharray:none;stroke-opacity:1"
         inkscape:transform-center-x="-0.38224923"
         inkscape:transform-center-y="-0.10694163"
         d="m 141.57017,81.090713 c -0.61363,0.257795 -1.43509,0.180186 -1.9876,-0.190933 -0.54138,-0.36363 -1.02329,-1.390643 -1.08258,-2.043381 -0.0593,-0.652734 -0.75021,-2.197325 -0.32275,-2.838288 0.42746,-0.640969 2.68522,2.665377 2.68522,2.665377 0,0 2.26089,-2.873374 2.53549,-2.213608 0.27459,0.659774 -0.29923,2.280074 -0.47799,2.950241 -0.18449,0.691739 -0.68976,1.393306 -1.34979,1.670592 z"
         sodipodi:nodetypes="sszzczss" />
      <path
         id="path2277-55-9-7-0-8"
         style="font-size:222.193px;fill:#ff000d;stroke:#000000;stroke-width:0.0815321;stroke-linecap:round;stroke-dasharray:none;stroke-opacity:1"
         inkscape:transform-center-x="-0.13024104"
         inkscape:transform-center-y="-0.095971921"
         d="m 161.14862,80.290058 c -0.57458,0.335958 -1.39912,0.366612 -1.99548,0.07109 -0.58435,-0.289591 -1.19664,-1.24463 -1.34091,-1.883974 -0.14429,-0.639341 -1.03158,-2.080129 -0.69176,-2.771558 0.33981,-0.69144 3.01122,2.290675 3.01122,2.290675 0,0 1.86502,-3.144771 2.22369,-2.526646 0.35866,0.618121 0.002,2.29962 -0.0874,2.987439 -0.0923,0.709944 -0.5013,1.471642 -1.11933,1.832998 z"
         sodipodi:nodetypes="sszzczss" />
      <path
         id="path2277-55-9-7-2-8"
         style="font-size:222.193px;fill:#ff000d;stroke:#000000;stroke-width:0.0815321;stroke-linecap:round;stroke-dasharray:none;stroke-opacity:1"
         inkscape:transform-center-x="-0.20172888"
         inkscape:transform-center-y="-0.038105603"
         d="m 173.57343,78.918898 c -0.58687,0.313978 -1.41198,0.313421 -1.99674,-0.0041 -0.57297,-0.311482 -1.1487,-1.289002 -1.26868,-1.933343 -0.12,-0.644348 -0.95215,-2.117666 -0.58643,-2.795742 0.36573,-0.678092 2.92242,2.402937 2.92242,2.402937 0,0 1.98264,-3.071973 2.31767,-2.440734 0.33501,0.631243 -0.085,2.29805 -0.20037,2.981994 -0.11909,0.705945 -0.55661,1.451628 -1.18787,1.789348 z"
         sodipodi:nodetypes="sszzczss" />
      <path
         id="path2277-55-1-2"
         style="font-size:222.193px;fill:#ff000d;stroke:#000000;stroke-width:0.0815321;stroke-linecap:round;stroke-dasharray:none;stroke-opacity:1"
         inkscape:transform-center-x="0.065547427"
         inkscape:transform-center-y="-0.25835406"
         d="m 148.40265,80.601167 c -0.5318,0.400238 -1.34725,0.526193 -1.97383,0.301697 -0.61394,-0.219961 -1.23244,-1.001353 -1.57562,-1.623602 -0.34317,-0.622244 -1.23999,-2.039064 -0.98253,-2.7652 0.25745,-0.72614 2.83909,0.909015 2.83909,0.909015 0,0 1.90543,-2.322084 2.33325,-1.749665 0.42783,0.572426 0.26833,2.283915 0.25915,2.977459 -0.009,0.715858 -0.32749,1.519794 -0.89951,1.950296 z"
         sodipodi:nodetypes="sszzczss" />
      <path
         id="path2277-55-1-00-9"
         style="font-size:222.193px;fill:#ff000d;stroke:#000000;stroke-width:0.0815321;stroke-linecap:round;stroke-dasharray:none;stroke-opacity:1"
         inkscape:transform-center-x="-0.12995094"
         inkscape:transform-center-y="-0.096179012"
         d="m 155.07352,79.778998 c -0.57458,0.335954 -1.39912,0.366617 -1.99549,0.0711 -0.58434,-0.289582 -1.10819,-1.13735 -1.37698,-1.795148 -0.26881,-0.65781 -0.99551,-2.168952 -0.65569,-2.86039 0.33982,-0.691429 2.71471,1.231694 2.71471,1.231694 0,0 2.16154,-2.085788 2.52019,-1.467667 0.35867,0.618117 0.002,2.299619 -0.0874,2.987435 -0.0923,0.70994 -0.50131,1.471642 -1.11933,1.833006 z"
         sodipodi:nodetypes="sszzczss" />
      <path
         id="path2277-55-1-0-5"
         style="font-size:222.193px;fill:#ff000d;stroke:#000000;stroke-width:0.0815321;stroke-linecap:round;stroke-dasharray:none;stroke-opacity:1"
         inkscape:transform-center-x="-0.12995081"
         inkscape:transform-center-y="-0.096180495"
         d="m 167.53789,79.275323 c -0.57458,0.335948 -1.39912,0.366615 -1.99549,0.07109 -0.58434,-0.289585 -1.10818,-1.137342 -1.37699,-1.79515 -0.2688,-0.657797 -0.99549,-2.168946 -0.65568,-2.860377 0.33982,-0.691438 2.71471,1.231692 2.71471,1.231692 0,0 2.16154,-2.085786 2.52019,-1.467671 0.35866,0.618114 0.002,2.299619 -0.0874,2.987432 -0.0923,0.709944 -0.50131,1.471647 -1.11934,1.833002 z"
         sodipodi:nodetypes="sszzczss" />
      <path
         style="font-size:222.193px;fill:none;stroke:#000000;stroke-width:1.40049;stroke-linecap:round;stroke-dasharray:none;stroke-opacity:1"
         d="m 114.77458,33.494727 c 0,0 -8.63633,3.150376 -5.68171,9.510693 1.3482,2.902234 4.11684,6.290506 28.03802,5.681716 31.39072,-0.798889 47.92402,-10.375303 47.92402,-10.375303"
         id="path1262-7"
         sodipodi:nodetypes="cssc" />
      <path
         style="font-size:222.193px;fill:none;stroke:#000000;stroke-width:2.33415;stroke-linecap:round;stroke-dasharray:none;stroke-opacity:1"
         d="m 141.2069,32.630121 c 0,0 0.80153,4.184597 0.74109,6.916866 -0.57448,25.971211 -9.5979,45.729852 -9.5979,45.729852"
         id="path1264-0"
         sodipodi:nodetypes="csc" />
      <ellipse
         style="font-size:222.193px;fill:#d38d5f;fill-opacity:1;stroke:#000000;stroke-width:0.231845;stroke-linecap:round;stroke-dasharray:none;stroke-opacity:1"
         id="path2057-9"
         cx="57.837132"
         cy="165.63402"
         rx="2.1161175"
         ry="2.0964253"
         transform="matrix(0.67386131,-0.73885786,0.79692685,0.60407581,0,0)" />
      <ellipse
         style="font-size:222.193px;fill:none;fill-opacity:1;stroke:#00000e;stroke-width:0.231367;stroke-linecap:round;stroke-dasharray:none;stroke-opacity:1"
         id="path11255-7"
         cx="170.19571"
         cy="57.290791"
         rx="0.11477959"
         ry="0.09564966" />
      <ellipse
         style="font-size:222.193px;fill:none;fill-opacity:1;stroke:#00000e;stroke-width:0.231367;stroke-linecap:round;stroke-dasharray:none;stroke-opacity:1"
         id="path11255-4-4"
         cx="171.59949"
         cy="56.894337"
         rx="0.11477959"
         ry="0.09564966" />
      <path
         style="font-size:222.193px;fill:none;fill-opacity:1;stroke:#00000e;stroke-width:0.115683;stroke-linecap:round;stroke-dasharray:none;stroke-opacity:1"
         d="m 170.674,58.381202 c 0.65042,-0.05739 0.85652,-0.09959 1.16693,-0.363467 0.0761,-0.06462 0.1339,-0.267824 0.1339,-0.267824"
         id="path16053-4"
         sodipodi:nodetypes="csc" />
      <ellipse
         style="font-size:222.193px;fill:#ffe1cd;fill-opacity:1;stroke:#00000e;stroke-width:0.115683;stroke-linecap:round;stroke-dasharray:none;stroke-opacity:1"
         id="path16055-6-4"
         cx="-130.74113"
         cy="-21.906755"
         rx="0.26781905"
         ry="0.18173437"
         transform="rotate(-163.17873)" />
      <ellipse
         style="font-size:222.193px;fill:#ffe1cd;fill-opacity:1;stroke:#00000e;stroke-width:0.115683;stroke-linecap:round;stroke-dasharray:none;stroke-opacity:1"
         id="path16055-5-7-2"
         cx="-135.86954"
         cy="20.56142"
         rx="0.26781905"
         ry="0.18173435"
         transform="rotate(-145.13386)" />
      <path
         style="font-size:222.193px;fill:none;fill-opacity:1;stroke:#000000;stroke-width:0.5;stroke-linecap:round;stroke-dasharray:none;stroke-opacity:1"
         d="m 122.82515,56.347008 c 0,0 1.50533,1.456654 1.85253,2.757243 0.30489,1.142095 0.59279,3.44443 0.59279,3.44443"
         id="path2139-3-4"
         sodipodi:nodetypes="csc" />
      <path
         style="font-size:222.193px;fill:none;fill-opacity:1;stroke:#000000;stroke-width:0.5;stroke-linecap:round;stroke-dasharray:none;stroke-opacity:1"
         d="m 125.25624,53.21239 c 0,0 0.53883,-4.583349 0.8932,-5.970842 0.1307,-0.511756 2.2921,3.475105 2.47042,3.442326 0.29412,-0.05406 0.7337,-0.600245 0.7337,-0.600245"
         id="path2115-0-6"
         sodipodi:nodetypes="cssc" />
      <path
         style="font-size:222.193px;fill:none;fill-opacity:1;stroke:#000000;stroke-width:0.5;stroke-linecap:round;stroke-dasharray:none;stroke-opacity:1"
         d="m 122.3739,51.869396 c 0,0 -0.30695,-3.371954 -0.95649,-4.720509 -0.202,-0.419382 -1.27794,3.098552 -1.55148,2.952504 -0.36065,-0.19256 -1.0129,-0.773591 -1.0129,-0.773591"
         id="path2115-3-7-2"
         sodipodi:nodetypes="cssc" />
      <path
         style="font-size:222.193px;fill:none;fill-opacity:1;stroke:#000000;stroke-width:0.5;stroke-linecap:round;stroke-dasharray:none;stroke-opacity:1"
         d="m 121.02009,55.296571 c 0,0 -1.88585,0.03685 -2.65031,0.835592 -1.50996,1.57768 -2.33624,4.279379 -2.33624,4.279379"
         id="path2141-3-1"
         sodipodi:nodetypes="csc" />
      <path
         id="path6844-9-6"
         style="font-size:222.193px;fill:#ffd42a;fill-opacity:1;stroke:#000000;stroke-width:0.2;stroke-linecap:round;stroke-dasharray:none;stroke-opacity:1"
         inkscape:transform-center-x="-1.4817522"
         d="m 120.93034,50.205369 6.03626,1.81051 c 0,0 -0.96413,1.839487 -1.61261,2.683385 -0.93145,1.212127 -3.21458,3.367138 -3.21458,3.367138 l -0.69754,-0.286777 c 0,0 -0.63337,-2.750967 -0.71854,-4.019288 -0.0852,-1.268315 0.20701,-3.554968 0.20701,-3.554968 z"
         sodipodi:nodetypes="ccscczc"
         inkscape:transform-center-y="0.66211258" />
      <ellipse
         style="font-size:222.193px;fill:#ffe1cd;fill-opacity:1;stroke:#000000;stroke-width:0.231845;stroke-linecap:round;stroke-dasharray:none;stroke-opacity:1"
         id="path2057-6-6"
         cx="-101.51974"
         cy="-80.231194"
         rx="2.1161175"
         ry="2.0964253"
         transform="matrix(-0.98471626,0.17416629,-0.26275444,-0.96486274,0,0)" />
      <ellipse
         style="font-size:222.193px;fill:none;fill-opacity:1;stroke:#00000e;stroke-width:0.231367;stroke-linecap:round;stroke-dasharray:none;stroke-opacity:1"
         id="path11255-8-3"
         cx="-133.12521"
         cy="26.511642"
         rx="0.1147796"
         ry="0.09564966"
         transform="rotate(-142.39592)" />
      <ellipse
         style="font-size:222.193px;fill:none;fill-opacity:1;stroke:#00000e;stroke-width:0.231367;stroke-linecap:round;stroke-dasharray:none;stroke-opacity:1"
         id="path11255-4-9-3"
         cx="-131.72147"
         cy="26.115191"
         rx="0.1147796"
         ry="0.09564966"
         transform="rotate(-142.39592)" />
      <path
         style="font-size:222.193px;fill:none;fill-opacity:1;stroke:#00000e;stroke-width:0.115683;stroke-linecap:round;stroke-dasharray:none;stroke-opacity:1"
         d="m 121.93197,59.073828 c -0.55031,-0.35142 -0.73934,-0.443751 -1.14628,-0.424104 -0.0997,0.0048 -0.26952,0.130466 -0.26952,0.130466"
         id="path16053-0-5"
         sodipodi:nodetypes="csc" />
      <path
         style="font-size:222.193px;fill:#552200;fill-opacity:1;stroke:none;stroke-width:0.0499999;stroke-linecap:round;stroke-linejoin:round;stroke-dasharray:none;stroke-opacity:1"
         d="m 118.90025,58.998566 c 0.24043,-0.01133 0.54463,0.536402 0.92289,1.281502 0.37825,0.745099 0.86305,1.033601 0.86305,1.033601 0,0 0.54269,-0.177386 0.82271,-0.228188 0.44238,-0.08026 1.34357,-0.119077 1.34357,-0.119077 0,0 0.29012,0.360583 0.31419,0.578775 0.18717,1.696405 0,5.506643 0,5.506643 0,0 -0.48406,0.236768 -0.5457,-0.06614 -0.59113,-2.904686 0.0827,-5.523177 0.0827,-5.523177 0,0 -1.65151,0.768976 -2.41834,0.474368 -0.37617,-0.14452 -0.80977,-0.573793 -1.08881,-1.024122 -0.31258,-0.504456 -0.44908,-1.026395 -0.44908,-1.026395 -0.14125,0.364936 0.0187,3.755759 -0.14482,6.917427 -0.0179,0.346974 -0.81247,0.38051 -0.81028,0.03308 0.0231,-3.669721 0.16402,-4.68315 0.69453,-7.507553 0.0326,-0.173441 0.23711,-0.32244 0.41341,-0.330731 z"
         id="path26518-6"
         sodipodi:nodetypes="szcacscscssssssss" />
      <path
         style="font-size:222.193px;fill:none;fill-opacity:1;stroke:#397ec4;stroke-width:0.2;stroke-linecap:round;stroke-linejoin:round;stroke-dasharray:none;stroke-opacity:1"
         d="m 118.44952,59.441357 0.3391,0.52619"
         id="path27300-8"
         sodipodi:nodetypes="cc" />
      <path
         style="font-size:222.193px;fill:none;fill-opacity:1;stroke:#397ec4;stroke-width:0.2;stroke-linecap:round;stroke-linejoin:round;stroke-dasharray:none;stroke-opacity:1"
         d="m 122.56763,61.558249 0.44005,-0.445214"
         id="path27300-1-5"
         sodipodi:nodetypes="cc" />
      <g
         id="g36520"
         transform="matrix(0.44748963,0.39712122,-0.39712122,0.44748963,8.4807831,-45.07187)">
        <path
           id="path2277-9-74-1-4-6"
           style="font-size:222.193px;fill:#e79b53;fill-opacity:1;stroke:#000000;stroke-width:0.167143;stroke-linecap:round;stroke-dasharray:none;stroke-opacity:1"
           inkscape:transform-center-x="0.13679404"
           inkscape:transform-center-y="0.35009014"
           d="m 271.3499,-57.15748 c -0.84156,-0.385029 -1.53569,-1.29849 -1.67626,-2.213224 -0.13773,-0.896275 0.30347,-1.886442 0.91541,-2.561742 0.61197,-0.675275 1.42584,-1.007866 2.48409,-1.174095 1.05826,-0.166226 4.36537,-0.345718 4.36537,-0.345718 0,0 -0.89876,2.930001 -1.31517,3.832203 -0.41644,0.90219 -0.93936,1.822228 -1.79332,2.270414 -0.88141,0.462612 -2.07492,0.606312 -2.98012,0.192162 z"
           sodipodi:nodetypes="sszzczss" />
        <path
           id="path2277-9-74-1-54-0-6"
           style="font-size:222.193px;fill:#68d256;fill-opacity:1;stroke:#000000;stroke-width:0.167143;stroke-linecap:round;stroke-dasharray:none;stroke-opacity:1"
           inkscape:transform-center-x="0.13679349"
           inkscape:transform-center-y="-0.3500899"
           d="m 271.41293,-69.744381 c -0.84156,0.385028 -1.53568,1.29849 -1.67626,2.213224 -0.13773,0.896275 0.30347,1.886442 0.91541,2.561741 0.61197,0.675275 1.42584,1.007867 2.48409,1.174096 1.05827,0.166226 4.36538,0.345717 4.36538,0.345717 0,0 -0.89876,-2.930001 -1.31518,-3.832202 -0.41644,-0.902191 -0.93936,-1.822228 -1.79331,-2.270415 -0.88141,-0.462611 -2.07493,-0.606311 -2.98013,-0.192161 z"
           sodipodi:nodetypes="sszzczss" />
        <path
           id="path2277-9-74-1-54-6-9-9"
           style="font-size:222.193px;fill:#e45344;fill-opacity:1;stroke:#000000;stroke-width:0.167143;stroke-linecap:round;stroke-dasharray:none;stroke-opacity:1"
           inkscape:transform-center-x="-0.13679034"
           inkscape:transform-center-y="-0.35009"
           d="m 283.46711,-69.698497 c 0.84156,0.385029 1.53568,1.298491 1.67626,2.213225 0.13773,0.896274 -0.30347,1.886441 -0.91541,2.561741 -0.61197,0.675275 -1.42584,1.007866 -2.48409,1.174096 -1.05826,0.166225 -4.36538,0.345717 -4.36538,0.345717 0,0 0.89876,-2.930001 1.31518,-3.832203 0.41644,-0.90219 0.93936,-1.822228 1.79331,-2.270414 0.88142,-0.462612 2.07493,-0.606312 2.98013,-0.192162 z"
           sodipodi:nodetypes="sszzczss" />
        <path
           id="path2277-9-74-1-5-8-2"
           style="font-size:222.193px;fill:#4eb2e1;fill-opacity:1;stroke:#000000;stroke-width:0.167143;stroke-linecap:round;stroke-dasharray:none;stroke-opacity:1"
           inkscape:transform-center-x="-0.13679315"
           inkscape:transform-center-y="0.35009005"
           d="m 283.50941,-57.138038 c 0.84155,-0.385028 1.53568,-1.29849 1.67626,-2.213224 0.13772,-0.896275 -0.30347,-1.886442 -0.91542,-2.561741 -0.61197,-0.675275 -1.42583,-1.007867 -2.48409,-1.174096 -1.05826,-0.166226 -4.36537,-0.345717 -4.36537,-0.345717 0,0 0.89876,2.930001 1.31518,3.832202 0.41643,0.902191 0.93936,1.822228 1.79331,2.270415 0.88141,0.462611 2.07492,0.606311 2.98013,0.192161 z"
           sodipodi:nodetypes="sszzczss" />
        <ellipse
           style="font-size:222.193px;fill:none;fill-opacity:1;stroke:#00000e;stroke-width:0.417289;stroke-linecap:round;stroke-dasharray:none;stroke-opacity:1"
           id="path11255-4-0-5-9"
           cx="273.8895"
           cy="-74.479408"
           rx="0.20701431"
           ry="0.17251192" />
        <ellipse
           style="font-size:222.193px;fill:none;fill-opacity:1;stroke:#00000e;stroke-width:0.417289;stroke-linecap:round;stroke-dasharray:none;stroke-opacity:1"
           id="path11255-4-0-1-3-9"
           cx="282.41977"
           cy="-72.748741"
           rx="0.20701431"
           ry="0.17251192" />
        <path
           style="font-size:222.193px;fill:none;fill-opacity:1;stroke:#000000;stroke-width:0.069945;stroke-linecap:round;stroke-linejoin:round;stroke-dasharray:none;stroke-opacity:1"
           d="m 277.39788,-63.443291 c -0.2776,-0.231329 -1.24675,-1.314237 -2.59088,-2.359551 -1.21349,-0.94372 -2.56775,-1.526769 -2.56775,-1.526769"
           id="path32596-7-7"
           sodipodi:nodetypes="csc" />
        <path
           style="font-size:222.193px;fill:none;fill-opacity:1;stroke:#000000;stroke-width:0.069945;stroke-linecap:round;stroke-linejoin:round;stroke-dasharray:none;stroke-opacity:1"
           d="m 282.51025,-59.591669 c -0.2776,-0.231329 -1.24676,-1.314237 -2.59088,-2.359551 -1.21349,-0.94372 -2.56776,-1.526769 -2.56776,-1.526769"
           id="path32596-5-0-5"
           sodipodi:nodetypes="csc" />
        <path
           style="font-size:222.193px;fill:none;fill-opacity:1;stroke:#000000;stroke-width:0.069945;stroke-linecap:round;stroke-linejoin:round;stroke-dasharray:none;stroke-opacity:1"
           d="m 272.26239,-59.591669 c 0.27759,-0.231329 1.24675,-1.314237 2.59088,-2.359551 1.21349,-0.94372 2.56775,-1.526769 2.56775,-1.526769"
           id="path32596-0-7-0"
           sodipodi:nodetypes="csc" />
        <path
           style="font-size:222.193px;fill:none;fill-opacity:1;stroke:#000000;stroke-width:0.069945;stroke-linecap:round;stroke-linejoin:round;stroke-dasharray:none;stroke-opacity:1"
           d="m 282.57965,-67.32961 c -0.2776,0.231329 -1.24676,1.314237 -2.59089,2.359551 -1.21349,0.94372 -2.56775,1.526769 -2.56775,1.526769"
           id="path32596-4-8-9"
           sodipodi:nodetypes="csc" />
        <path
           style="font-size:222.193px;fill:none;fill-opacity:1;stroke:#000000;stroke-width:0.334285;stroke-linecap:round;stroke-linejoin:round;stroke-dasharray:none;stroke-opacity:1"
           d="m 277.41997,-63.507175 c -0.0929,-0.349212 -0.24114,-3.73252 -0.6343,-5.844515 -0.41725,-2.241356 -1.21078,-6.109604 -1.79668,-6.361694 -0.58669,-0.252433 -0.90174,1.046058 -0.90174,1.046058"
           id="path32596-9-4-7"
           sodipodi:nodetypes="cssc" />
        <path
           style="font-size:222.193px;fill:none;fill-opacity:1;stroke:#000000;stroke-width:0.334285;stroke-linecap:round;stroke-linejoin:round;stroke-dasharray:none;stroke-opacity:1"
           d="m 277.40489,-63.701478 c 0.1482,-0.329578 0.61421,-3.982271 1.24096,-6.037086 0.94948,-3.112855 3.18761,-4.951136 3.80656,-5.105152 0.61979,-0.154212 0.15992,2.045322 0.15992,2.045322"
           id="path32596-9-2-7-1"
           sodipodi:nodetypes="cssc" />
      </g>
    </g>
    <text
       xml:space="preserve"
       transform="scale(0.26458333)"
       id="text346"
       style="white-space:pre;shape-inside:url(#rect348);display:inline;fill:#000000" />
  </g>
  <metadata
     id="metadata38022">
    <rdf:RDF>
      <cc:Work
         rdf:about="">
        <dc:title>logo cabinet Sophie</dc:title>
        <dc:creator>
          <cc:Agent>
            <dc:title>Mickaël Ribardière</dc:title>
          </cc:Agent>
        </dc:creator>
      </cc:Work>
    </rdf:RDF>
  </metadata>
</svg>
